<!--?xml version="1.0" encoding="utf-8"?-->
<!-- Generator: Adobe Illustrator 22.0.1, SVG Export Plug-In . SVG Version: 6.00 Build 0)  -->
<svg version="1.1" xmlns="http://www.w3.org/2000/svg" xmlns:xlink="http://www.w3.org/1999/xlink" x="0px" y="0px" viewBox="0 0 1280 720" style="" xml:space="preserve">
<style type="text/css">
	.st0{display:none;}
	.st1{fill:none;stroke:#BC0202;stroke-width:5;stroke-linecap:round;stroke-linejoin:round;stroke-miterlimit:10;}
</style>
<g id="Слой_1" class="st0">
	
		<image style="display:inline;overflow:visible;" width="4032" height="3024" xlink:href="../../../Pictures/iCloud Photos/Downloads/IMG_0519(1).JPG" transform="matrix(1.780538e-02 0.5068 -0.5068 1.780538e-02 1320.9198 -486.5781)">
	</image>
</g>
<g id="Слой_2">
	<path class="st1 ZRRMzhVL_0" d="M102.5,724c-2.9-8-3.7-16.6-3.7-25.2c-0.1-13.3,1.4-26.8,6.3-39.2c8.2-20.6,25.2-36.3,42.8-49.8
		c14.7-11.2,30.4-21.3,44-33.9c12.5-11.7,23.7-25.3,33.7-38.9c13.1-17.9,25.5-36.7,33.3-57.6c9.4-24.8,15.1-50.5,11.9-77.1
		c-3-24.6-12.6-48.5-25.8-69.1c-5.6-8.7-11.2-17.4-18-25.1c-7.7-8.6-16.8-15.8-25.2-23.7c-18-16.6-33.4-36.5-42.6-59.2
		c-9.3-22.7-12.2-48.3-5.7-72c1.2-4.5,1.6-8.8,3.6-13c11-22.3,20.2-45.4,27.6-69.1c0.6-2.1,1.2-4.6-0.3-6.2c-3.6,0.2-6.1,3.5-8,6.5
		c-5.8,9.1-11.3,18.6-16.7,28c3.5-11.8,7.1-23.6,9.6-35.6c1.5-7.4,2.8-14.9,3.5-22.4c0.2-2,1.5-8-0.1-9.8c-3.4-3.8-7.4,4.7-8.4,7.1
		c-6.6,16.3-13.2,32.7-19.8,48.9c5.7-18.3,7.6-37.6,9.6-56.6c0.6-5.7,1.1-11.7-1.1-16.9c-2.6-0.6-4.7,2.1-5.9,4.5
		c-10.8,20.8-15.5,44.9-18.9,68.1c0.7-18.4,0.3-36.8-1.3-55.2c-0.2-2.5-0.5-5-1.6-7.2c-3,0.5-4.4,3.8-5.3,6.7
		c-6.9,21.8-12.4,45.3-14.6,68.1C99.2,90.9,92.2,83.1,84.5,76c-1.5-1.4-3.6-2.8-5.3-1.7c-0.5,2.6,0.5,5.2,1.4,7.7
		c7.9,21.7,15.9,43.3,23.8,65c-4.2,15.9-6.4,32.6-7.6,49c-2.4,33.3,7.2,67.3,26.6,94.5c11,15.4,24.9,28.6,36.1,43.8
		c15.3,20.6,27.9,44.8,29.1,70.3c1.3,25.6-5.6,51.2-17.5,73.9c-9.1,17.3-19.1,33.7-33.4,47.1c-10.3,9.6-22.4,17-34.1,24.9
		c-24.6,16.6-47.9,36-64.7,60.4C16.2,643.9,8.1,685.7,23,723.7"></path>
	<path class="st1 ZRRMzhVL_1" d="M-6.5,291.8c25.9-14.7,56.2-31.3,86.6-33.4c43.6-2.9,85.6,11.9,129,6.4c40.4-5.2,82.5-13.1,115.8-38.1
		c8.6-6.4,16.3-13.8,24.1-21.2c25.6-24.6,51.2-48,73.9-75.2c14-16.7,24-36.3,32.6-56.3c2.7-6.3,5.4-12.8,10-17.9
		c0.5-0.5,1-1.1,1.7-1.1c1.5-0.1,2.2,1.9,2.2,3.5c0.6,11.5,0.3,23-1.8,34.4c15-11.9,30.1-23.8,45.1-35.6c4.2-3.3,8.4-6.7,13-9.5
		c3.5-2.1,7.1-3.9,10.9-5.4c1.7-0.6,3.8-1.1,5,0.2c-1.6,5.7-5.3,10.6-9,15.3c-10.7,13.2-21.1,25.1-34,36.2
		c18.6-11.3,37.2-22.7,55.8-34c5.8-3.5,11.6-7.1,18.2-8.7c0.7-0.2,1.4-0.3,2,0c1.6,0.7,1,3.2,0.1,4.8c-14.3,23.5-38.6,39.1-62,53.5
		c18.5-8.8,37.5-16.6,56.8-23.4c2.5-0.9,12.2-3.7,9,2.7c-0.6,1.2-1.7,2.1-2.8,3c-9.6,7.8-19.8,15.5-31.1,20.8
		c0,0-17.9,9.1-27.4,12.3c42.7-11.1,40.2-4,40.2-4s-0.9,1.7-4.4,4c-3.5,2.3-66.1,27.4-94.2,49.1c-27.1,20.9-44.4,52.6-68.5,76.7
		c-20,20-42,38.2-66.1,53.1c-25.1,15.5-53.9,24.5-83,29.3c-35.7,5.8-69.7-1.8-105.2-2.4c-49.2-0.9-109,15.5-140.6,55.9"></path>
	<path class="st1 ZRRMzhVL_2" d="M-8.1,553.9c22.1,4.1,45-1.9,65.3-11.5c20.3-9.5,38.9-22.5,58.5-33.5c19.6-11,41-20.1,63.4-20.9
		c9.5-0.3,18.9,0.9,28.2,2.3c18.1,2.8,36,6.7,53.7,11.6c15.1,4.2,29.8,9.5,45.4,11.6c32.3,4.4,66,0.9,96.7-10c2.8-1,6.2-3.5,4.8-6.1
		c-17.2,0.3-34.2-0.1-51.2-1.9c25-0.4,50-6,72.8-16.3c1.4-0.6,3-1.8,2.5-3.3c-0.5-1.2-2.1-1.4-3.4-1.3c-22.2,1.4-43.7,2.7-65.9,4.1
		c26.7-3.9,52.8-12.3,76.8-24.6c1.5-0.8,3.2-2.7,2-3.9c-19.3,2.6-38.7,5.3-58,7.9c-6.4,0.9-12,2-18.4,2c20-5.2,39.2-13.5,56.8-24.4
		c0.7-0.5,1.5-1.1,1.4-1.9c-0.1-1.2-1.8-1.4-3-1.2c-26.8,3.4-54,11.2-80.8,8.2c6.5-10.9,14.2-21.1,22.8-30.4
		c0.8-0.8,1.5-2.2,0.5-2.8c-0.3-0.2-0.8-0.2-1.2-0.2c-5.6,0.4-10.8,3.2-15.7,6c-6.3,3.6-12.4,7.4-18.7,11.1
		c-16.2,9.5-30.6,20.4-49.2,22.5c-15.4,1.7-30.7-2.7-45.5-7.4c-30.8-9.9-62.3-21.7-94.4-18.2c-23.7,2.6-47.1,11.9-67.2,24.8
		c-11.9,7.6-22.9,16.5-35.5,22.7c-12.6,6.2-27.5,9.6-40.8,5.2"></path>
	<path class="st1 ZRRMzhVL_3" d="M843.9,726.5c31-47.1,46.5-109.4,26.5-163.8c-22.2-60.6-85.8-95.9-149.1-90.2c-46.3,4.2-90.8,23.4-137.9,12.9
		c-27.3-6.1-52.4-21.7-69.9-43.5c-17.5-21.8-22.9-48.6-26.4-76.3c-3.2-24.5-1.8-49.4-1.6-74.1c0-2-0.4-4.6-2.4-5
		c-1.9-0.4-3.2,1.7-4,3.4c-5.3,12-8.5,25.6-8.2,38.7c-2.6-21.1-6.8-42-12.3-62.5c-0.4-1.3-1-2.9-2.4-3c-1.7-0.1-2.4,2-2.6,3.7
		c-1.8,16.5-2.3,32.5-1,49.1c-4.8-21-10.6-41.7-17.3-62.2c-0.7-2.1-2.1-4.7-4.3-4.3c-2.1,0.4-2.6,3.1-2.6,5.2
		c-0.4,21,0.4,41.6,2,62.6c-4.7-17-11.8-33.4-20.8-48.5c-0.7-1.2-2-2.6-3.3-2c-1,0.5-1.1,1.9-1,3.1c2.2,28.3,6.7,56.6,13.8,84.1
		c-5.7-4.5-11.3-8.9-17-13.4c-2.4-1.9-8-5.4-11.1-4.9c-3.8,0.6,1.3,9.1,2.2,10.7c8.8,15.7,19.9,30.2,32.8,42.8
		c3.9,3.9,8.2,7.7,10.5,12.7c5.5,11.9,9,23.5,12.7,36.1c12.8,43.2,42.6,82.4,83.8,100.7c23,10.3,48.6,13.7,73.8,14.3
		c10.6,0.2,21.3,0,31.9-0.8c33.7-2.4,68.7-9.7,100.6,1.5c18.1,6.4,32.3,17.3,41.4,34.1c9.1,16.9,11.3,36.8,8.7,55.8
		c-2.6,19-9.8,37.1-18.7,54c-5.4,10.3-11.6,20.5-21.2,27.1"></path>
	<path class="st1 ZRRMzhVL_4" d="M361.6-2.2c-1.5,12.3-3.7,24.9-9.9,35.7c-14.2,24.7-46.6,35.7-57.9,61.9c-8,18.6-2.7,41.3,10.2,56.9
		c12.9,15.6,32.4,24.8,52.3,28.8c19.9,4,40.4,3.2,60.6,1.9c9.8-0.6,19.7-1.4,29.3-3.4c8-1.7,15.8-4.2,23.8-5.7
		c13.7-2.6,26.1,0.9,40,2.1c15,1.2,29.4,6.6,43.9,10.7c19.6,5.4,40,8.3,60.3,8.5c12,0.1,24.4-0.6,35.7,3.4c0.9,1.9-1.7,3.4-3.7,3.8
		c-12.4,2.8-24.8,5.7-37.2,8.5c14.7,8.2,28.8,16.6,43.4,25c9.2,5.3,18.7,10.9,24.3,19.9c-1.6,1.7-4.4,1.3-6.7,0.7
		c-16.3-4.3-32.5-9.1-48.5-14.3c18.6,14.6,35.4,28.7,53.9,43.3c1.7,1.4,3.6,3.2,3.2,5.3c-2.8,0.4-5.5-0.6-8.2-1.6
		c-21.9-8.1-43.3-17.8-63.8-29c11.8,10.5,21.8,21,32.1,33c2.6,3,5.2,6.2,6,10c-1.5,0.5-3.2-0.1-4.7-0.7
		c-17.9-7.1-34.5-17.6-48.6-30.8c7,8.5,12,18.3,16.6,28.3c1,2.2,2,4.6,1.6,7c-1.7,1.3-4-0.2-5.5-1.7c-8.6-8.3-17-16.9-25-25.7
		c-10.1-11.1-19.9-22.8-32.4-31.2c-20.2-13.5-44.3-22.4-68.5-19.3c-15.3,1.9-29.8,7.6-44.6,11.5c-36,9.5-74.6,8.7-110.2-2.3
		c-19.6-6.1-39.1-14.5-56.1-26.1c-9.3-6.4-17.9-13.8-25.3-22.4c-21.2-24.9-30.3-59.7-24-91.8c2.1-10.8,6-21.4,12.3-30.5
		c9.4-13.4,23.9-23,30.8-37.8c4.5-9.7,5.3-21.1,2.1-31.3"></path>
	<path class="st1 ZRRMzhVL_5" d="M280.5,722.2c3.3-17.7,6.7-35.7,15.9-51.1c14.3-23.8,41.8-38.3,69.5-39.9c50.3-3,73.8,31.5,113.7,51.8
		c53.4,27.2,101.7,10.6,154-8.1c10.3-3.7,20.9-6.7,31.5-9.8c14.7-4.2,29.5-8.5,44.2-12.7c3.4-1,7.6-3.6,6.3-6.8
		c-15.3,0.3-30.9-0.1-46.2,0.2c21.2-7.4,41.6-17.1,60.6-29.1c2.3-1.5,5-4.2,3.4-6.5c-20.5,1.7-40.3,13-60.7,15.2
		c22.2-10.2,43.3-23,62.7-38c-3.5-2-7.8-0.7-11.5,0.6c-21,7.3-41.1,14.1-62.1,21.4c14.3-10.1,28.6-20.3,42.8-30.6
		c0.7-0.5,1.5-1.6,0.8-2.2c-2.1-1.4-4.9-0.7-7.3,0.1c-23.2,7.7-47.4,16.2-69.4,27c5.6-11.3,8.8-23.8,9.3-36.4
		c-5.4,2.1-9.1,7.1-12.6,11.8c-10.8,14.9-21.6,29.9-32.5,44.8c-3.1,4.3-6.4,8.7-11,11.4c-4.5,2.6-10,3.3-15.2,3.5
		c-16.8,0.8-34.5-1.9-49.1-10.6c-14.9-8.8-28.7-20.6-42.9-31.1c-15.6-11.5-32.1-19.5-50-26.6c-23.1-9.2-48.8-11.7-73.3-7.1
		c-77.8,14.6-144.5,79.2-150.7,160.3"></path>
	<path class="st1 ZRRMzhVL_6" d="M359.9,725.8c27-19.2,47.5-47.2,57.8-78.7c3.2-9.8,5.4-20,7.6-30.1c2.3-10.5,4.6-21.1,6.9-31.6
		c2-9.4,4.1-18.9,7.4-27.9c8.4-22.9,24.7-42.3,44.3-56.8c17.9-13.2,37.2-20.7,57.7-28.4c17-6.3,35.2-15.2,42.3-33.1
		c5.8-14.7,6.9-30.7,9.7-46.3c1.8-10,4.3-19.8,7.6-29.4c1.6-0.5,2.7,1.7,3,3.3c2,11.6,4.1,23.2,6.1,34.8
		c16.3-21.9,33.2-41.6,49.5-63.5c1.9-2.5,4.1-5.5,6.9-7c8-4.4,4.9,5.2,3.3,9.3c-2.4,6.1-5.7,11.7-8.4,17.6
		c-4.6,10.1-9.5,20-14.5,29.9c14.8-17.1,30.2-33.9,45-51c2.1-2.4,5.2-5.1,8.2-3.8c-8.2,24.3-20.6,47.3-36.5,67.5
		c10.3-7.4,19.3-15.4,28.3-24.4c4.9-5,9.7-10.2,15.9-13.5c1.8,3.7-0.3,8.1-2.4,11.6c-9.6,16.3-20.8,31.7-33.5,45.7
		c11.7-9,24.3-15.7,37.9-21.4c2,1.8,0.1,4.9-1.7,6.8c-8.9,9.2-17.7,18.3-26.6,27.5c-31.8,32.9-64.5,63.9-104.4,86.3
		c-15.8,8.9-33.6,14.5-47.5,26c-25.8,21.3-33,57.4-37.4,90.6c-4.4,33.2-9,69.1-32,93.4"></path>
	<path class="st1 ZRRMzhVL_7" d="M1253.5,0.4c8.6,48.3-11.7,99.8-48.4,132.3s-88.2,46.4-137,40.8c-47.7-5.4-90.5-28.7-131.3-52.4
		C886.1,91.8,830,61.7,770,61.5c-28.8-0.1-57.1,7.8-85.5,11.4c-8.3,1.1-16.6,2.1-24.9,3.2c-9.3,1.2-18.7,2.4-27.8,4.9
		c-2.3,0.6-4.7,1.4-6.7,2.7c7.8,4.5,17.3,4.8,26.3,5c7,0.2,14.1-0.3,21.1-0.1c-24.8,4.1-48.9,12.2-71,24c-2.2,1.2-4.7,3.4-3.6,5.6
		c24.6-1.4,48.5-4.1,72.7-9.2c-25.3,9.6-50.1,20.4-74.4,32.5c-3.8,1.9-8.2,5.3-6.9,9.3c18.1-1,35.8-6,53.3-11.1
		c13.8-4,27.3-7.9,41-11.9c-17.3,7.9-34.1,17-50.2,27.1c-2.8,1.7-5.8,4.2-5.5,7.4c27.3-5.3,54.1-12.7,80.6-20.8
		c-7.3,10.4-13.2,21.7-17.6,33.6c8.6-6,17.2-12,25.8-18.1c12.2-8.6,24.5-17.2,38.1-23.5c25.5-11.8,52.5-10.2,77.7,1.9
		c29,14,52.4,37.9,79.2,55.6c27,17.8,55.6,33.3,85.6,45.4c36.3,14.7,75.8,23.5,114.7,22.8c29.9-0.5,60.4-9.6,88.2-20.7
		c33.3-13.3,66.9-31,86.7-60.9"></path>
	<path class="st1 ZRRMzhVL_8" d="M980-14c2,16.1-4.8,31.9-11.4,46.8c-13.3,29.8-27.3,60.7-52,82.1c-33.1,28.7-84.4,39.4-123.2,58.7
		c-32.5,16.2-54.8,41.1-64.7,76.3c-6.9,24.6-8,51.3,0.5,75.4c9,25.6,25.1,52.3,46.3,69.3c23.8,19.1,39.7,46.3,53.1,73.8
		c1.3,2.6,3.1,5.6,5.9,5.7c-0.7-14.6-2.4-27.4-7.5-41c3.1,5.6,7.6,10.3,12.1,14.9c10.8,11.1,21.2,22.3,33.8,31.5
		c1.1,0.8,1.9,1.3,3.2,1.2c-0.5-7.9-7.6-17.8-11.4-24.8c-4.1-7.5-8.4-17.1-14.3-23.4c14.2,14.9,29.3,28.8,45.4,41.7
		c1.5,1.2,3.7,2.4,5.2,1.2c0.9-3.2-1.1-6.3-3.1-9c-11.4-15.8-24.3-32-35.7-47.8c10.8,8.9,22.1,17.1,34.1,24.4
		c3.9,2.4,8.5,4.8,12.8,3.1c-1.9-5-5.4-9.2-8.9-13.3c-11.3-13.4-22.7-26.7-34-40.1c-3.5-4.1-7.1-8.6-8.4-13.8
		c10.5,0.3,21-0.4,31.3-2.3c0.9-2-1.8-3.7-3.9-4.3c-13.4-3.8-26.7-7.6-40.1-11.4c-9.1-2.6-18.2-5.2-26.4-9.9
		c-17.2-9.8-28.7-28.9-29.4-48.7c-1.1-31.1,10.8-57.5,37.4-74.8c28.7-18.7,62.1-18.6,92.7-31.5c25.1-10.5,49.3-29.7,68.6-48.8
		c41.8-41.5,69.5-97.6,74.6-156.4"></path>
	<path class="st1 ZRRMzhVL_9" d="M1288.2,640.3c-30,4.5-60.8,3.4-90.4-3c-47.8-10.4-94.9-37.8-115.1-82.4c-21.5-47.5-19.2-101.8-34.9-151.5
		c-7.7-24.5-26.1-46.9-50.9-53.6c-23.5-6.4-48.2,1.8-71.5,8.9c-4.1,1.3-8.7,2.4-12.5,0.4c8.9-10.9,19.5-20.4,31.3-28.2
		c-6.4,0.1-13.1-2.2-19.3-3.8c-22.3-5.5-44.6-11-66.9-16.5c-2.5-0.6-5.6-2.5-4.5-4.8c21.3-1.2,42.6-1.6,63.9-1.2
		c-6.8-1.2-12.9-4.7-19.4-6.9c-19.6-6.7-39.1-13.4-58.7-20.2c-1.9-0.7-4.3-2.4-3.3-4.1c27.3,2.1,54.5,6,81.4,11.6
		c-19.2-7.4-39.6-15.3-57.7-25c-1.3-0.7-2.6-1.4-3.3-2.7c-0.7-1.2-0.5-3.1,0.7-3.8c0.6-0.3,1.4-0.3,2.1-0.2c3.2,0.3,6.4,1.2,9.6,2
		c20.5,5.4,41,10.9,61.5,16.3c-10.8-7.4-19.5-16.6-28.7-25.9c-0.9-0.9-1.9-2.1-1.7-3.4c0.5-2.8,4.6-2,7-0.5
		c26.6,16.3,55.9,27.1,85.8,35.7c26.6,7.6,53.3,11.1,75.2,29.2c37.9,31.3,52.7,83.3,63.1,129.3c4.3,19.1,7.4,38.6,15,56.7
		c10.7,25.6,30.6,47.4,55.7,59.2c25,11.9,55.1,13.3,80.7,2.9"></path>
	<path class="st1 ZRRMzhVL_10" d="M1112,732.1c-0.9-49.2-21.8-100.2-63.2-126.8c-20.3-13-46.1-21.4-56.6-43.1c-9.5-19.9-1.7-44.6,13.2-60.8
		c14.9-16.2,35.7-25.6,56-33.9c46.2-19,91.9-37.9,131-69c9.3-7.4,17.5-16.2,25.7-24.9c3.2-3.5,6.5-6.9,9.7-10.4
		c9.9-10.6,19.8-21.1,29.6-31.7c1.3-1.4,2.6-2.8,3.5-4.5c-1.7-0.7-3.6-0.3-5.4,0.3c-6.5,2.1-12.4,5.9-18.1,9.7
		c-6.6,4.3-12.4,8.5-19,12.8c16.4-13.5,29.8-30.2,43.1-46.7c2.1-2.6,4.2-6,2.7-8.9c-5.3,1.1-9.6,4.8-13.7,8.3
		c-11.8,10-22.8,19.6-35.8,28c20.5-16.7,33.9-40.3,46.8-63.3c1.3-2.3,1.7-6.2-0.9-6.4c-1-0.1-1.9,0.6-2.6,1.3
		c-20.2,17.7-40.2,37.2-59.1,56.3c11.5-16.6,21.5-34.3,30-52.6c0.9-2,1.2-5.3-1-5.5c-0.8-0.1-1.5,0.4-2.2,0.8
		c-22.1,14.8-34.5,39.6-55,56.5c-0.7-12.7-2.8-25.3-6.2-37.6c-3.6-0.4-5.1,4.4-5.4,8c-1.9,23.2-7.8,46.1-17.2,67.5
		c-13,29.4-50.6,36.8-81.1,47c-18,6-35.7,13.1-52.9,21.2c-13.1,6.1-25.9,12.9-37.5,21.5c-44.5,33.1-65.3,95-49.9,148.2
		c2.4,8.4,5.7,16.7,11,23.7c6.8,9.1,16.6,15.5,25.8,22.1c11.8,8.5,23.1,17.8,33.9,27.7c16.9,15.7,33.5,37.1,28.2,59.5"></path>
</g>
<style data-made-with="vivus-instant">.ZRRMzhVL_0{stroke-dasharray:2023 2025;stroke-dashoffset:2024;animation:ZRRMzhVL_draw_0 7200ms linear 0ms infinite,ZRRMzhVL_fade 7200ms linear 0ms infinite;}.ZRRMzhVL_1{stroke-dasharray:1785 1787;stroke-dashoffset:1786;animation:ZRRMzhVL_draw_1 7200ms linear 0ms infinite,ZRRMzhVL_fade 7200ms linear 0ms infinite;}.ZRRMzhVL_2{stroke-dasharray:1389 1391;stroke-dashoffset:1390;animation:ZRRMzhVL_draw_2 7200ms linear 0ms infinite,ZRRMzhVL_fade 7200ms linear 0ms infinite;}.ZRRMzhVL_3{stroke-dasharray:1902 1904;stroke-dashoffset:1903;animation:ZRRMzhVL_draw_3 7200ms linear 0ms infinite,ZRRMzhVL_fade 7200ms linear 0ms infinite;}.ZRRMzhVL_4{stroke-dasharray:1667 1669;stroke-dashoffset:1668;animation:ZRRMzhVL_draw_4 7200ms linear 0ms infinite,ZRRMzhVL_fade 7200ms linear 0ms infinite;}.ZRRMzhVL_5{stroke-dasharray:1601 1603;stroke-dashoffset:1602;animation:ZRRMzhVL_draw_5 7200ms linear 0ms infinite,ZRRMzhVL_fade 7200ms linear 0ms infinite;}.ZRRMzhVL_6{stroke-dasharray:1425 1427;stroke-dashoffset:1426;animation:ZRRMzhVL_draw_6 7200ms linear 0ms infinite,ZRRMzhVL_fade 7200ms linear 0ms infinite;}.ZRRMzhVL_7{stroke-dasharray:2014 2016;stroke-dashoffset:2015;animation:ZRRMzhVL_draw_7 7200ms linear 0ms infinite,ZRRMzhVL_fade 7200ms linear 0ms infinite;}.ZRRMzhVL_8{stroke-dasharray:1707 1709;stroke-dashoffset:1708;animation:ZRRMzhVL_draw_8 7200ms linear 0ms infinite,ZRRMzhVL_fade 7200ms linear 0ms infinite;}.ZRRMzhVL_9{stroke-dasharray:1674 1676;stroke-dashoffset:1675;animation:ZRRMzhVL_draw_9 7200ms linear 0ms infinite,ZRRMzhVL_fade 7200ms linear 0ms infinite;}.ZRRMzhVL_10{stroke-dasharray:1759 1761;stroke-dashoffset:1760;animation:ZRRMzhVL_draw_10 7200ms linear 0ms infinite,ZRRMzhVL_fade 7200ms linear 0ms infinite;}@keyframes ZRRMzhVL_draw{100%{stroke-dashoffset:0;}}@keyframes ZRRMzhVL_fade{0%{stroke-opacity:1;}94.44444444444444%{stroke-opacity:1;}100%{stroke-opacity:0;}}@keyframes ZRRMzhVL_draw_0{11.11111111111111%{stroke-dashoffset: 2024}52.77777777777778%{ stroke-dashoffset: 0;}100%{ stroke-dashoffset: 0;}}@keyframes ZRRMzhVL_draw_1{11.11111111111111%{stroke-dashoffset: 1786}52.77777777777778%{ stroke-dashoffset: 0;}100%{ stroke-dashoffset: 0;}}@keyframes ZRRMzhVL_draw_2{11.11111111111111%{stroke-dashoffset: 1390}52.77777777777778%{ stroke-dashoffset: 0;}100%{ stroke-dashoffset: 0;}}@keyframes ZRRMzhVL_draw_3{11.11111111111111%{stroke-dashoffset: 1903}52.77777777777778%{ stroke-dashoffset: 0;}100%{ stroke-dashoffset: 0;}}@keyframes ZRRMzhVL_draw_4{11.11111111111111%{stroke-dashoffset: 1668}52.77777777777778%{ stroke-dashoffset: 0;}100%{ stroke-dashoffset: 0;}}@keyframes ZRRMzhVL_draw_5{11.11111111111111%{stroke-dashoffset: 1602}52.77777777777778%{ stroke-dashoffset: 0;}100%{ stroke-dashoffset: 0;}}@keyframes ZRRMzhVL_draw_6{11.11111111111111%{stroke-dashoffset: 1426}52.77777777777778%{ stroke-dashoffset: 0;}100%{ stroke-dashoffset: 0;}}@keyframes ZRRMzhVL_draw_7{11.11111111111111%{stroke-dashoffset: 2015}52.77777777777778%{ stroke-dashoffset: 0;}100%{ stroke-dashoffset: 0;}}@keyframes ZRRMzhVL_draw_8{11.11111111111111%{stroke-dashoffset: 1708}52.77777777777778%{ stroke-dashoffset: 0;}100%{ stroke-dashoffset: 0;}}@keyframes ZRRMzhVL_draw_9{11.11111111111111%{stroke-dashoffset: 1675}52.77777777777778%{ stroke-dashoffset: 0;}100%{ stroke-dashoffset: 0;}}@keyframes ZRRMzhVL_draw_10{11.11111111111111%{stroke-dashoffset: 1760}52.77777777777778%{ stroke-dashoffset: 0;}100%{ stroke-dashoffset: 0;}}</style></svg>
