<?xml version="1.0" encoding="utf-8"?>
<!-- Generator: Adobe Illustrator 22.0.1, SVG Export Plug-In . SVG Version: 6.00 Build 0)  -->
<svg version="1.1" id="Слой_1" xmlns="http://www.w3.org/2000/svg" xmlns:xlink="http://www.w3.org/1999/xlink" x="0px" y="0px"
	 viewBox="0 0 2000 1000" style="enable-background:new 0 0 2000 1000;" xml:space="preserve">
<style type="text/css">
	.st0{fill:#BC0202;}
	.st1{fill:#FFFFFF;}
</style>
<rect class="st0" width="2000" height="1000"/>
<g>
	<g>
		<path class="st1" d="M70.4,32.4c3.9,13.2,9.8,25.6,17.9,36.9c1.9,2.6,6.2,0.1,4.3-2.5c-7.8-10.9-13.6-22.8-17.4-35.7
			C74.3,28,69.5,29.3,70.4,32.4L70.4,32.4z"/>
	</g>
</g>
<g>
	<g>
		<path class="st1" d="M117.8,42.7c13,1.2,26,2.4,39,3.6c3.2,0.3,3.2-4.7,0-5c-13-1.2-26-2.4-39-3.6
			C114.6,37.4,114.6,42.4,117.8,42.7L117.8,42.7z"/>
	</g>
</g>
<g>
	<g>
		<path class="st1" d="M33.6,67.9c-4.9,12.6-9.1,25.4-12.5,38.5c-0.8,3.1,4,4.4,4.8,1.3c3.4-13.1,7.6-25.9,12.5-38.5
			C39.5,66.3,34.7,65,33.6,67.9L33.6,67.9z"/>
	</g>
</g>
<g>
	<g>
		<path class="st1" d="M64.6,104.3c13.1,3.9,25.4,9.7,36.8,17.3c2.7,1.8,5.2-2.5,2.5-4.3c-11.7-7.9-24.4-13.9-37.9-17.8
			C62.9,98.6,61.6,103.4,64.6,104.3L64.6,104.3z"/>
	</g>
</g>
<g>
	<g>
		<path class="st1" d="M52.5,137c0.7,14.1-1.2,28-5.8,41.4c-1,3.1,3.8,4.4,4.8,1.3c4.7-13.8,6.7-28.2,6-42.7
			C57.4,133.8,52.4,133.8,52.5,137L52.5,137z"/>
	</g>
</g>
<g>
	<g>
		<path class="st1" d="M92.6,170.4c6.7,10.6,13.4,21.3,20.2,31.9c1.7,2.7,6,0.2,4.3-2.5c-6.7-10.6-13.4-21.3-20.2-31.9
			C95.2,165.2,90.9,167.7,92.6,170.4L92.6,170.4z"/>
	</g>
</g>
<g>
	<g>
		<path class="st1" d="M70.2,215.4c-7,15.4-13.5,31.1-19.4,47c-1.1,3,3.7,4.3,4.8,1.3c5.8-15.5,12.1-30.7,18.9-45.8
			C75.8,215,71.5,212.5,70.2,215.4L70.2,215.4z"/>
	</g>
</g>
<g>
	<g>
		<path class="st1" d="M22.3,274.7c7.5,10.5,15.1,21,22.6,31.6c1.9,2.6,6.2,0.1,4.3-2.5c-7.5-10.5-15.1-21-22.6-31.6
			C24.8,269.5,20.4,272,22.3,274.7L22.3,274.7z"/>
	</g>
</g>
<g>
	<g>
		<path class="st1" d="M110.2,239.5c9.5,15.6,20.5,30.1,32.9,43.5c2.2,2.4,5.7-1.2,3.5-3.5c-12.1-13-22.9-27.2-32.1-42.5
			C112.8,234.2,108.5,236.7,110.2,239.5L110.2,239.5z"/>
	</g>
</g>
<g>
	<g>
		<path class="st1" d="M94,297c-0.7,14.7-3.2,29.2-7.2,43.4c-0.9,3.1,3.9,4.4,4.8,1.3c4.2-14.6,6.6-29.6,7.4-44.7
			C99.2,293.8,94.2,293.8,94,297L94,297z"/>
	</g>
</g>
<g>
	<g>
		<path class="st1" d="M147.1,157.2c8.6-8.1,17.2-16.1,25.8-24.2c2.4-2.2-1.2-5.7-3.5-3.5c-8.6,8.1-17.2,16.1-25.8,24.2
			C141.2,155.8,144.8,159.4,147.1,157.2L147.1,157.2z"/>
	</g>
</g>
<g>
	<g>
		<path class="st1" d="M176,72.5c12.1,5.3,22.6,13.4,30.6,23.9c1.9,2.5,6.3,0,4.3-2.5c-8.6-11.2-19.5-20-32.4-25.7
			C175.6,66.9,173.1,71.2,176,72.5L176,72.5z"/>
	</g>
</g>
<g>
	<g>
		<path class="st1" d="M212.4,45.4c8.6-6.1,17.2-12.2,25.8-18.3c2.6-1.9,0.1-6.2-2.5-4.3c-8.6,6.1-17.2,12.2-25.8,18.3
			C207.3,42.9,209.8,47.3,212.4,45.4L212.4,45.4z"/>
	</g>
</g>
<g>
	<g>
		<path class="st1" d="M238.3,69.5c10.7,3.8,21.5,7.6,32.2,11.5c3,1.1,4.3-3.7,1.3-4.8c-10.7-3.8-21.5-7.6-32.2-11.5
			C236.6,63.6,235.3,68.4,238.3,69.5L238.3,69.5z"/>
	</g>
</g>
<g>
	<g>
		<path class="st1" d="M285.7,55.9c11.1-1.8,21.4-6.2,30.4-12.9c2.5-1.9,0.1-6.2-2.5-4.3c-8.7,6.5-18.5,10.7-29.2,12.4
			C281.2,51.6,282.6,56.4,285.7,55.9L285.7,55.9z"/>
	</g>
</g>
<g>
	<g>
		<path class="st1" d="M241.4,112c-7.8,14.6-13.8,30-17.6,46.1c-0.7,3.1,4.1,4.5,4.8,1.3c3.8-15.7,9.5-30.7,17.1-44.9
			C247.2,111.7,242.9,109.2,241.4,112L241.4,112z"/>
	</g>
</g>
<g>
	<g>
		<path class="st1" d="M191.9,182.1c7.7,8.2,14.5,17,20.5,26.4c1.7,2.7,6,0.2,4.3-2.5c-6.2-9.8-13.3-19-21.3-27.4
			C193.2,176.3,189.7,179.8,191.9,182.1L191.9,182.1z"/>
	</g>
</g>
<g>
	<g>
		<path class="st1" d="M170.3,203c0.9,14.1,0.6,28.1-1,42.1c-0.4,3.2,4.6,3.2,5,0c1.6-14,2-28,1-42.1
			C175.1,199.8,170.1,199.8,170.3,203L170.3,203z"/>
	</g>
</g>
<g>
	<g>
		<path class="st1" d="M208.3,247.7c14,3.8,28.1,7.7,42.1,11.5c3.1,0.8,4.4-4,1.3-4.8c-14-3.8-28.1-7.7-42.1-11.5
			C206.5,242,205.2,246.8,208.3,247.7L208.3,247.7z"/>
	</g>
</g>
<g>
	<g>
		<path class="st1" d="M195.9,283.8c3.5,16.6,7.1,33.2,10.6,49.9c0.7,3.1,5.5,1.8,4.8-1.3c-3.5-16.6-7.1-33.2-10.6-49.9
			C200,279.3,195.2,280.7,195.9,283.8L195.9,283.8z"/>
	</g>
</g>
<g>
	<g>
		<path class="st1" d="M171.5,317.4c-9.3,12-18.6,24.1-27.9,36.1c-1.9,2.5,1.6,6.1,3.5,3.5c9.3-12,18.6-24.1,27.9-36.1
			C177,318.5,173.5,314.9,171.5,317.4L171.5,317.4z"/>
	</g>
</g>
<g>
	<g>
		<path class="st1" d="M111.2,376.8c10.5,10.4,19.1,22.3,25.6,35.5c1.4,2.9,5.7,0.4,4.3-2.5c-6.7-13.6-15.6-25.9-26.4-36.5
			C112.5,371,108.9,374.5,111.2,376.8L111.2,376.8z"/>
	</g>
</g>
<g>
	<g>
		<path class="st1" d="M77.8,368.9c-10.2,6.6-19.8,13.9-28.9,22c-2.4,2.2,1.1,5.7,3.5,3.5c8.7-7.8,18-14.9,27.8-21.2
			C83,371.5,80.5,367.1,77.8,368.9L77.8,368.9z"/>
	</g>
</g>
<g>
	<g>
		<path class="st1" d="M40.3,350.5c-10.3,1.4-20.3,4.2-30,8.1c-2.9,1.2-1.6,6,1.3,4.8c9.7-4,19.6-6.7,30-8.1
			C44.8,354.8,43.5,350,40.3,350.5L40.3,350.5z"/>
	</g>
</g>
<g>
	<g>
		<path class="st1" d="M89.4,410c6.7,15.3,11.5,31.3,14.4,47.8c0.6,3.2,5.4,1.8,4.8-1.3c-3-16.9-8.1-33.2-14.9-49
			C92.4,404.6,88.1,407.1,89.4,410L89.4,410z"/>
	</g>
</g>
<g>
	<g>
		<path class="st1" d="M52.6,413.6C44,427,35.5,440.4,26.9,453.8c-1.7,2.7,2.6,5.2,4.3,2.5c8.6-13.4,17.1-26.8,25.7-40.2
			C58.7,413.4,54.3,410.9,52.6,413.6L52.6,413.6z"/>
	</g>
</g>
<g>
	<g>
		<path class="st1" d="M75,493.6c15.4,1.1,30.7,2.2,46.1,3.3c3.2,0.2,3.2-4.8,0-5c-15.4-1.1-30.7-2.2-46.1-3.3
			C71.8,488.4,71.8,493.4,75,493.6L75,493.6z"/>
	</g>
</g>
<g>
	<g>
		<path class="st1" d="M42.8,519c0.4,17.7-3.8,35-12.2,50.6c-1.5,2.8,2.8,5.4,4.3,2.5c8.9-16.3,13.3-34.5,12.9-53.1
			C47.7,515.8,42.7,515.8,42.8,519L42.8,519z"/>
	</g>
</g>
<g>
	<g>
		<path class="st1" d="M91.6,548.3c12.3,11.1,24.6,22.1,36.9,33.2c2.4,2.1,5.9-1.4,3.5-3.5c-12.3-11.1-24.6-22.1-36.9-33.2
			C92.8,542.6,89.2,546.2,91.6,548.3L91.6,548.3z"/>
	</g>
</g>
<g>
	<g>
		<path class="st1" d="M79.2,600.4c-2.7,14-5.4,28-8,42c-0.6,3.1,4.2,4.5,4.8,1.3c2.7-14,5.4-28,8-42
			C84.6,598.6,79.8,597.3,79.2,600.4L79.2,600.4z"/>
	</g>
</g>
<g>
	<g>
		<path class="st1" d="M32.1,658.7c7.4,12.6,16.6,23.9,27.4,33.8c2.4,2.2,5.9-1.4,3.5-3.5c-10.5-9.6-19.3-20.6-26.6-32.8
			C34.8,653.4,30.5,655.9,32.1,658.7L32.1,658.7z"/>
	</g>
</g>
<g>
	<g>
		<path class="st1" d="M113,649.3c15.3-0.8,30.7-1.6,46-2.3c3.2-0.2,3.2-5.2,0-5c-15.3,0.8-30.7,1.6-46,2.3
			C109.8,644.5,109.8,649.5,113,649.3L113,649.3z"/>
	</g>
</g>
<g>
	<g>
		<path class="st1" d="M151.6,522.5c6-11.3,12-22.7,17.9-34c1.5-2.8-2.8-5.4-4.3-2.5c-6,11.3-12,22.7-17.9,34
			C145.7,522.8,150.1,525.3,151.6,522.5L151.6,522.5z"/>
	</g>
</g>
<g>
	<g>
		<path class="st1" d="M175.9,416.9c13.1,7.3,23,18.9,28.1,33c1.1,3,5.9,1.7,4.8-1.3c-5.5-15.3-16.2-28-30.4-35.9
			C175.6,411,173.1,415.3,175.9,416.9L175.9,416.9z"/>
	</g>
</g>
<g>
	<g>
		<path class="st1" d="M216.2,383c12.5-6.8,25.6-12.2,39.3-16.3c3.1-0.9,1.8-5.7-1.3-4.8c-14.1,4.1-27.6,9.7-40.5,16.8
			C210.8,380.2,213.4,384.6,216.2,383L216.2,383z"/>
	</g>
</g>
<g>
	<g>
		<path class="st1" d="M265.8,298c5,14.4,10.8,28.5,17.1,42.3c1.3,2.9,5.7,0.4,4.3-2.5c-6.2-13.4-11.7-27.1-16.6-41.1
			C269.5,293.6,264.7,294.9,265.8,298L265.8,298z"/>
	</g>
</g>
<g>
	<g>
		<path class="st1" d="M279.9,237c0.4-14,2.1-27.8,5-41.5c0.7-3.1-4.1-4.5-4.8-1.3c-3,14.1-4.8,28.4-5.2,42.8
			C274.8,240.2,279.8,240.2,279.9,237L279.9,237z"/>
	</g>
</g>
<g>
	<g>
		<path class="st1" d="M276.2,150.2c14.9,6.9,28.4,16.1,40.4,27.3c2.3,2.2,5.9-1.3,3.5-3.5c-12.2-11.5-26.1-21-41.4-28.1
			C275.8,144.5,273.3,148.8,276.2,150.2L276.2,150.2z"/>
	</g>
</g>
<g>
	<g>
		<path class="st1" d="M319.2,232.1c8.7,15.2,16.3,30.9,22.8,47.1c1.2,3,6,1.7,4.8-1.3c-6.6-16.6-14.4-32.7-23.3-48.3
			C321.9,226.7,317.6,229.3,319.2,232.1L319.2,232.1z"/>
	</g>
</g>
<g>
	<g>
		<path class="st1" d="M314.3,317.5c13.3,5.5,26.6,10.9,39.8,16.4c3,1.2,4.3-3.6,1.3-4.8c-13.3-5.5-26.6-10.9-39.8-16.4
			C312.7,311.4,311.4,316.3,314.3,317.5L314.3,317.5z"/>
	</g>
</g>
<g>
	<g>
		<path class="st1" d="M361,201.7c11.3,1.4,22.7,2.7,34,4.1c3.2,0.4,3.2-4.6,0-5c-11.3-1.4-22.7-2.7-34-4.1
			C357.8,196.3,357.8,201.3,361,201.7L361,201.7z"/>
	</g>
</g>
<g>
	<g>
		<path class="st1" d="M362.6,79c-0.8,17.7,0.6,35.3,4.1,52.6c0.6,3.2,5.5,1.8,4.8-1.3c-3.4-16.9-4.7-34.1-3.9-51.3
			C367.7,75.8,362.7,75.8,362.6,79L362.6,79z"/>
	</g>
</g>
<g>
	<g>
		<path class="st1" d="M408.4,59c10.7,2,19.9,7.4,26.8,15.8c2,2.5,5.6-1.1,3.5-3.5c-7.4-9-17.5-15-29-17.1
			C406.6,53.6,405.2,58.4,408.4,59L408.4,59z"/>
	</g>
</g>
<g>
	<g>
		<path class="st1" d="M479.5,25c0.4,16.5,2.7,32.8,6.8,48.7c0.8,3.1,5.6,1.8,4.8-1.3c-4.1-15.5-6.3-31.4-6.7-47.4
			C484.5,21.8,479.5,21.8,479.5,25L479.5,25z"/>
	</g>
</g>
<g>
	<g>
		<path class="st1" d="M416.2,131.8c15,4.4,29.7,9.6,44.1,15.6c3,1.2,4.3-3.6,1.3-4.8c-14.4-5.9-29.2-11.1-44.1-15.6
			C414.5,126,413.2,130.8,416.2,131.8L416.2,131.8z"/>
	</g>
</g>
<g>
	<g>
		<path class="st1" d="M504.6,121c0.4,14.8-1.6,29.3-6,43.4c-1,3.1,3.9,4.4,4.8,1.3c4.5-14.5,6.6-29.5,6.1-44.7
			C509.5,117.8,504.5,117.8,504.6,121L504.6,121z"/>
	</g>
</g>
<g>
	<g>
		<path class="st1" d="M369.1,42.2c7.2-12.4,17.8-21.9,30.8-27.8c2.9-1.3,0.4-5.6-2.5-4.3c-13.8,6.2-25.1,16.6-32.6,29.6
			C363.2,42.5,367.5,45,369.1,42.2L369.1,42.2z"/>
	</g>
</g>
<g>
	<g>
		<path class="st1" d="M530,88.2c17.7-6.5,34-15.7,48.8-27.5c2.5-2-1-5.5-3.5-3.5c-14,11.2-29.8,20-46.6,26.2
			C525.6,84.5,526.9,89.3,530,88.2L530,88.2z"/>
	</g>
</g>
<g>
	<g>
		<path class="st1" d="M589.6,24.3c10.9,9,19.3,20.4,24.3,33.6c1.1,3,6,1.7,4.8-1.3c-5.4-14-14-26.2-25.6-35.8
			C590.7,18.7,587.1,22.3,589.6,24.3L589.6,24.3z"/>
	</g>
</g>
<g>
	<g>
		<path class="st1" d="M578.5,115c0,11.3,0,22.7,0,34c0,3.2,5,3.2,5,0c0-11.3,0-22.7,0-34C583.5,111.8,578.5,111.8,578.5,115
			L578.5,115z"/>
	</g>
</g>
<g>
	<g>
		<path class="st1" d="M537.9,196.9c9.1,4.2,17.6,9.5,25.4,15.8c2.5,2,6-1.5,3.5-3.5c-8.2-6.6-16.9-12.2-26.5-16.6
			C537.5,191.2,535,195.5,537.9,196.9L537.9,196.9z"/>
	</g>
</g>
<g>
	<g>
		<path class="st1" d="M488.7,213c-0.3,14.2-3.6,28-9.9,40.7c-1.4,2.9,2.9,5.4,4.3,2.5c6.7-13.5,10.3-28.1,10.6-43.2
			C493.8,209.8,488.8,209.8,488.7,213L488.7,213z"/>
	</g>
</g>
<g>
	<g>
		<path class="st1" d="M398.2,266.6c8.9,15.2,17.7,30.4,26.6,45.6c1.6,2.8,5.9,0.3,4.3-2.5c-8.9-15.2-17.7-30.4-26.6-45.6
			C400.9,261.3,396.6,263.8,398.2,266.6L398.2,266.6z"/>
	</g>
</g>
<g>
	<g>
		<path class="st1" d="M546.1,260.2c-3.8,14.1-7.6,28.1-11.4,42.2c-0.8,3.1,4,4.4,4.8,1.3c3.8-14.1,7.6-28.1,11.4-42.2
			C551.8,258.4,547,257.1,546.1,260.2L546.1,260.2z"/>
	</g>
</g>
<g>
	<g>
		<path class="st1" d="M427.7,372.3c8.2,9.1,16.5,18.1,24.7,27.2c2.2,2.4,5.7-1.2,3.5-3.5c-8.2-9.1-16.5-18.1-24.7-27.2
			C429.1,366.4,425.5,370,427.7,372.3L427.7,372.3z"/>
	</g>
</g>
<g>
	<g>
		<path class="st1" d="M486.2,342c11.4,3.1,22.8,6.3,34.2,9.4c3.1,0.9,4.4-4,1.3-4.8c-11.4-3.1-22.8-6.3-34.2-9.4
			C484.4,336.3,483.1,341.2,486.2,342L486.2,342z"/>
	</g>
</g>
<g>
	<g>
		<path class="st1" d="M357.2,378.5c-4,15.3-10.4,29.6-19.2,42.7c-1.8,2.7,2.5,5.2,4.3,2.5c9-13.4,15.7-28.2,19.7-43.9
			C362.9,376.7,358,375.4,357.2,378.5L357.2,378.5z"/>
	</g>
</g>
<g>
	<g>
		<path class="st1" d="M167.5,600.4c4.5-10.1,9.1-20.1,13.6-30.2c1.3-2.9-3-5.5-4.3-2.5c-4.5,10.1-9.1,20.1-13.6,30.2
			C161.9,600.8,166.2,603.4,167.5,600.4L167.5,600.4z"/>
	</g>
</g>
<g>
	<g>
		<path class="st1" d="M202.1,524c9.3,10.2,16.8,21.8,22.5,34.4c1.3,2.9,5.6,0.4,4.3-2.5c-5.8-13-13.6-24.9-23.3-35.4
			C203.4,518.1,199.9,521.6,202.1,524L202.1,524z"/>
	</g>
</g>
<g>
	<g>
		<path class="st1" d="M222.5,603c0,12,0,24,0,36c0,3.2,5,3.2,5,0c0-12,0-24,0-36C227.5,599.8,222.5,599.8,222.5,603L222.5,603z"/>
	</g>
</g>
<g>
	<g>
		<path class="st1" d="M196.5,671c11.7,3.3,22.1,9.3,30.7,17.9c2.3,2.3,5.8-1.3,3.5-3.5c-9.2-9.2-20.4-15.7-32.9-19.2
			C194.7,665.3,193.4,670.1,196.5,671L196.5,671z"/>
	</g>
</g>
<g>
	<g>
		<path class="st1" d="M168.7,708.8c-1.6,11.9-3.2,23.8-5,35.7c-0.5,3.1,4.4,4.5,4.8,1.3c1.8-12.3,3.5-24.7,5.1-37.1
			C174.1,705.6,169.1,705.6,168.7,708.8L168.7,708.8z"/>
	</g>
</g>
<g>
	<g>
		<path class="st1" d="M214.6,750.8c8.9,3.7,16.5,9.8,22.1,17.6c1.8,2.6,6.2,0.1,4.3-2.5c-6.4-9-14.8-15.7-25-19.9
			C212.9,744.7,211.6,749.6,214.6,750.8L214.6,750.8z"/>
	</g>
</g>
<g>
	<g>
		<path class="st1" d="M113.9,696.7c-4.2,16.2-13.2,30.3-25.9,41.1c-2.5,2.1,1.1,5.6,3.5,3.5c13.3-11.3,22.7-26.4,27.2-43.3
			C119.5,694.9,114.7,693.6,113.9,696.7L113.9,696.7z"/>
	</g>
</g>
<g>
	<g>
		<path class="st1" d="M130.7,743c-0.9,15.3-1.7,30.6-2.6,46c-0.2,3.2,4.8,3.2,5,0c0.9-15.3,1.7-30.6,2.6-46
			C135.8,739.8,130.8,739.8,130.7,743L130.7,743z"/>
	</g>
</g>
<g>
	<g>
		<path class="st1" d="M47.7,736.8c-14,6.1-27.4,13.5-40,22.1c-2.6,1.8-0.1,6.1,2.5,4.3c12.6-8.6,26-16,40-22.1
			C53.2,739.8,50.6,735.5,47.7,736.8L47.7,736.8z"/>
	</g>
</g>
<g>
	<g>
		<path class="st1" d="M59.3,777.6c2.3,17,3.4,34.2,3.3,51.4c0,3.2,5,3.2,5,0c0.1-17.7-1.1-35.3-3.5-52.8
			C63.6,773.1,58.8,774.4,59.3,777.6L59.3,777.6z"/>
	</g>
</g>
<g>
	<g>
		<path class="st1" d="M24.4,839.7c12,10.6,23.9,21.3,35.9,31.9c2.4,2.1,5.9-1.4,3.5-3.5c-12-10.6-23.9-21.3-35.9-31.9
			C25.6,834,22,837.5,24.4,839.7L24.4,839.7z"/>
	</g>
</g>
<g>
	<g>
		<path class="st1" d="M102.3,823.5c16,4.1,32,8.1,47.9,12.2c3.1,0.8,4.5-4,1.3-4.8c-16-4.1-32-8.1-47.9-12.2
			C100.5,817.9,99.2,822.7,102.3,823.5L102.3,823.5z"/>
	</g>
</g>
<g>
	<g>
		<path class="st1" d="M180.9,785c1.3,15.3,2.7,30.7,4,46c0.3,3.2,5.3,3.2,5,0c-1.3-15.3-2.7-30.7-4-46
			C185.7,781.8,180.7,781.8,180.9,785L180.9,785z"/>
	</g>
</g>
<g>
	<g>
		<path class="st1" d="M182.3,862.8c-8.5,11.8-19.8,20.9-33,27c-2.9,1.3-0.4,5.6,2.5,4.3c14-6.4,25.8-16.3,34.8-28.8
			C188.5,862.7,184.1,860.2,182.3,862.8L182.3,862.8z"/>
	</g>
</g>
<g>
	<g>
		<path class="st1" d="M94.6,871c-1.3,12.9,0.8,25.5,5.9,37.4c1.3,2.9,5.6,0.4,4.3-2.5c-4.8-11-6.5-22.9-5.3-34.8
			C100,867.8,95,867.8,94.6,871L94.6,871z"/>
	</g>
</g>
<g>
	<g>
		<path class="st1" d="M55.6,917.2c-11.9-1.7-23.9-3.5-35.8-5.2c-3.1-0.5-4.5,4.4-1.3,4.8c11.9,1.7,23.9,3.5,35.8,5.2
			C57.4,922.5,58.7,917.7,55.6,917.2L55.6,917.2z"/>
	</g>
</g>
<g>
	<g>
		<path class="st1" d="M73.3,940c-10,5.8-18.2,13.9-24.2,23.8c-1.7,2.8,2.6,5.3,4.3,2.5c5.6-9.2,13.1-16.6,22.4-22
			C78.6,942.7,76.1,938.4,73.3,940L73.3,940z"/>
	</g>
</g>
<g>
	<g>
		<path class="st1" d="M100.3,954.6c6.2,9.2,12.4,18.4,18.6,27.6c1.8,2.7,6.1,0.2,4.3-2.5c-6.2-9.2-12.4-18.4-18.6-27.6
			C102.8,949.5,98.5,952,100.3,954.6L100.3,954.6z"/>
	</g>
</g>
<g>
	<g>
		<path class="st1" d="M141.6,933.2c13.3-2.8,26.6-5.7,39.9-8.5c3.1-0.7,1.8-5.5-1.3-4.8c-13.3,2.8-26.6,5.7-39.9,8.5
			C137.1,929,138.5,933.8,141.6,933.2L141.6,933.2z"/>
	</g>
</g>
<g>
	<g>
		<path class="st1" d="M248.4,926.5c6.9,14,5.6,30.7-3.1,43.6c-1.8,2.7,2.5,5.2,4.3,2.5c9.8-14.4,10.8-33.1,3.1-48.6
			C251.3,921.1,247,923.6,248.4,926.5L248.4,926.5z"/>
	</g>
</g>
<g>
	<g>
		<path class="st1" d="M180.2,979.1c10.7-7.9,19.8-17.5,27.1-28.7c1.8-2.7-2.6-5.2-4.3-2.5c-6.8,10.4-15.4,19.5-25.4,26.9
			C175.1,976.6,177.6,981,180.2,979.1L180.2,979.1z"/>
	</g>
</g>
<g>
	<g>
		<path class="st1" d="M244.9,872.4c14.8-1.6,29.2-5,43.1-10.3c3-1.1,1.7-6-1.3-4.8c-13.5,5.1-27.4,8.5-41.7,10.1
			C241.7,867.8,241.7,872.8,244.9,872.4L244.9,872.4z"/>
	</g>
</g>
<g>
	<g>
		<path class="st1" d="M268.4,775.7c2.8,10.8,7.8,20.5,14.9,29c2.1,2.5,5.6-1.1,3.5-3.5c-6.5-7.9-11.1-16.9-13.6-26.8
			C272.4,771.3,267.6,772.6,268.4,775.7L268.4,775.7z"/>
	</g>
</g>
<g>
	<g>
		<path class="st1" d="M298.2,895.8c6.9,6.9,13.1,14.4,18.5,22.6c1.8,2.7,6.1,0.2,4.3-2.5c-5.6-8.5-12.1-16.4-19.3-23.6
			C299.4,890,295.9,893.5,298.2,895.8L298.2,895.8z"/>
	</g>
</g>
<g>
	<g>
		<path class="st1" d="M334.2,972.7c17.7-7.3,35.4-14.7,53.2-22c2.9-1.2,1.6-6.1-1.3-4.8c-17.7,7.3-35.4,14.7-53.2,22
			C329.9,969.1,331.2,973.9,334.2,972.7L334.2,972.7z"/>
	</g>
</g>
<g>
	<g>
		<path class="st1" d="M256.5,415c-0.2,13.2,1.8,26.2,5.8,38.8c1,3.1,5.8,1.7,4.8-1.3c-3.9-12.2-5.7-24.7-5.6-37.4
			C261.6,411.8,256.6,411.8,256.5,415L256.5,415z"/>
	</g>
</g>
<g>
	<g>
		<path class="st1" d="M335,513.4c11-0.7,21.3,2.1,30.4,8.2c2.7,1.8,5.2-2.5,2.5-4.3c-9.8-6.6-21.2-9.7-33-8.9
			C331.8,508.6,331.8,513.6,335,513.4L335,513.4z"/>
	</g>
</g>
<g>
	<g>
		<path class="st1" d="M292.3,572.6c9.4,15.6,18.1,31.5,26.4,47.8c1.5,2.9,5.8,0.3,4.3-2.5c-8.2-16.2-17-32.2-26.4-47.8
			C295,567.3,290.7,569.8,292.3,572.6L292.3,572.6z"/>
	</g>
</g>
<g>
	<g>
		<path class="st1" d="M302.1,707c13.3-8.8,26.5-17.5,39.8-26.3c2.7-1.8,0.2-6.1-2.5-4.3c-13.3,8.8-26.5,17.5-39.8,26.3
			C297,704.4,299.5,708.8,302.1,707L302.1,707z"/>
	</g>
</g>
<g>
	<g>
		<path class="st1" d="M351.7,741.1c13.5,6,24.5,15.9,31.7,28.8c1.6,2.8,5.9,0.3,4.3-2.5c-7.6-13.6-19.3-24.2-33.5-30.6
			C351.4,735.5,348.8,739.8,351.7,741.1L351.7,741.1z"/>
	</g>
</g>
<g>
	<g>
		<path class="st1" d="M361,831.5c12.7,0,25.3,0,38,0c3.2,0,3.2-5,0-5c-12.7,0-25.3,0-38,0C357.8,826.5,357.8,831.5,361,831.5
			L361,831.5z"/>
	</g>
</g>
<g>
	<g>
		<path class="st1" d="M428.5,857c0,12.7,0,25.3,0,38c0,3.2,5,3.2,5,0c0-12.7,0-25.3,0-38C433.5,853.8,428.5,853.8,428.5,857
			L428.5,857z"/>
	</g>
</g>
<g>
	<g>
		<path class="st1" d="M461.9,758.3c-1.7-12.6-3.5-25.2-5.2-37.8c-0.4-3.2-5.3-1.8-4.8,1.3c1.7,12.6,3.5,25.2,5.2,37.8
			C457.5,762.8,462.3,761.4,461.9,758.3L461.9,758.3z"/>
	</g>
</g>
<g>
	<g>
		<path class="st1" d="M373.7,617.5c3.1,16.2,10.4,31.1,21.2,43.6c2.1,2.4,5.6-1.1,3.5-3.5c-10.2-11.9-16.9-26.1-19.9-41.4
			C377.9,613,373.1,614.3,373.7,617.5L373.7,617.5z"/>
	</g>
</g>
<g>
	<g>
		<path class="st1" d="M407.3,567c0.3-11.4,3-22.4,8.1-32.6c1.4-2.9-2.9-5.4-4.3-2.5c-5.5,11-8.5,22.8-8.8,35.2
			C402.2,570.2,407.2,570.2,407.3,567L407.3,567z"/>
	</g>
</g>
<g>
	<g>
		<path class="st1" d="M414.9,456c18.6,1.9,37.3,2.3,56,1.3c3.2-0.2,3.2-5.2,0-5c-18.7,1-37.4,0.5-56-1.3
			C411.7,450.7,411.8,455.7,414.9,456L414.9,456z"/>
	</g>
</g>
<g>
	<g>
		<path class="st1" d="M530.5,469.7c11.6,14,19.5,30.4,23.3,48.1c0.7,3.1,5.5,1.8,4.8-1.3c-4.1-18.6-12.5-35.7-24.6-50.3
			C532,463.7,528.5,467.2,530.5,469.7L530.5,469.7z"/>
	</g>
</g>
<g>
	<g>
		<path class="st1" d="M474.5,549.5c9.2,10,19.7,18.5,31.5,25.4c2.8,1.6,5.3-2.7,2.5-4.3c-11.4-6.6-21.6-14.8-30.5-24.6
			C475.8,543.5,472.3,547.1,474.5,549.5L474.5,549.5z"/>
	</g>
</g>
<g>
	<g>
		<path class="st1" d="M591.6,602.7c-4.4,14-11.3,27-20.6,38.4c-2,2.5,1.5,6,3.5,3.5c9.8-12.1,17.2-25.7,21.9-40.6
			C597.4,600.9,592.6,599.6,591.6,602.7L591.6,602.7z"/>
	</g>
</g>
<g>
	<g>
		<path class="st1" d="M508.7,669.3c13.7,15.7,27.4,31.4,41.1,47.1c2.1,2.4,5.6-1.1,3.5-3.5c-13.7-15.7-27.4-31.4-41.1-47.1
			C510.1,663.3,506.6,666.8,508.7,669.3L508.7,669.3z"/>
	</g>
</g>
<g>
	<g>
		<path class="st1" d="M527.8,773.1c8.7,3.9,16.5,9.1,23.5,15.7c2.3,2.2,5.9-1.3,3.5-3.5c-7.3-6.8-15.4-12.3-24.5-16.4
			C527.4,767.5,524.8,771.8,527.8,773.1L527.8,773.1z"/>
	</g>
</g>
<g>
	<g>
		<path class="st1" d="M444.2,808.1c16.3,8.2,31.3,18.5,44.7,31c2.4,2.2,5.9-1.3,3.5-3.5c-13.7-12.7-29-23.4-45.7-31.7
			C443.9,802.4,441.4,806.7,444.2,808.1L444.2,808.1z"/>
	</g>
</g>
<g>
	<g>
		<path class="st1" d="M528.8,831.6c5.2,14.7,10.4,29.4,15.6,44.2c1.1,3,5.9,1.7,4.8-1.3c-5.2-14.7-10.4-29.4-15.6-44.2
			C532.6,827.2,527.8,828.5,528.8,831.6L528.8,831.6z"/>
	</g>
</g>
<g>
	<g>
		<path class="st1" d="M484.3,917.8c5.6,13.6,13.2,26,22.9,37c2.1,2.4,5.7-1.1,3.5-3.5c-9.1-10.3-16.4-22.1-21.6-34.8
			C487.9,913.5,483.1,914.8,484.3,917.8L484.3,917.8z"/>
	</g>
</g>
<g>
	<g>
		<path class="st1" d="M450.2,960.2c-3.9,10.5-9,20.4-15.1,29.7c-1.8,2.7,2.6,5.2,4.3,2.5c6.4-9.7,11.6-20,15.6-30.9
			C456.1,958.5,451.3,957.2,450.2,960.2L450.2,960.2z"/>
	</g>
</g>
<g>
	<g>
		<path class="st1" d="M593.2,937.9c-5.2,11.8-11.4,23-18.7,33.6c-1.8,2.7,2.5,5.2,4.3,2.5c7.3-10.6,13.6-21.8,18.7-33.6
			C598.8,937.5,594.5,934.9,593.2,937.9L593.2,937.9z"/>
	</g>
</g>
<g>
	<g>
		<path class="st1" d="M620.4,963.3c13.2,3.9,26.9,5.3,40.6,4.1c3.2-0.3,3.2-5.3,0-5c-13.3,1.2-26.5-0.1-39.3-3.9
			C618.6,957.6,617.3,962.4,620.4,963.3L620.4,963.3z"/>
	</g>
</g>
<g>
	<g>
		<path class="st1" d="M639.2,881.4c5.6,13.4,11.9,26.5,19.2,39.1c1.6,2.8,5.9,0.3,4.3-2.5c-7-12.2-13.3-24.9-18.7-37.9
			C642.8,877.2,637.9,878.5,639.2,881.4L639.2,881.4z"/>
	</g>
</g>
<g>
	<g>
		<path class="st1" d="M738.7,895c-0.5,14.2-5.1,27.6-13.3,39.1c-1.9,2.6,2.5,5.1,4.3,2.5c8.7-12.3,13.5-26.6,14-41.6
			C743.8,891.8,738.8,891.8,738.7,895L738.7,895z"/>
	</g>
</g>
<g>
	<g>
		<path class="st1" d="M716.2,851.9c-9.8-8.9-19.6-17.8-29.4-26.7c-2.4-2.2-5.9,1.4-3.5,3.5c9.8,8.9,19.6,17.8,29.4,26.7
			C715,857.6,718.5,854.1,716.2,851.9L716.2,851.9z"/>
	</g>
</g>
<g>
	<g>
		<path class="st1" d="M627.9,758.2c-7.5,16.1-12.2,33.1-14,50.7c-0.3,3.2,4.7,3.2,5,0c1.7-16.7,6.3-33,13.3-48.2
			C633.5,757.8,629.2,755.3,627.9,758.2L627.9,758.2z"/>
	</g>
</g>
<g>
	<g>
		<path class="st1" d="M840,929.4c-7.1,15.4-13.5,31.1-19.2,47.1c-1.1,3,3.7,4.3,4.8,1.3c5.6-15.6,11.8-30.8,18.7-45.9
			C845.7,929,841.3,926.4,840,929.4L840,929.4z"/>
	</g>
</g>
<g>
	<g>
		<path class="st1" d="M889,973c11.9-10.1,23.9-20.2,35.8-30.2c2.5-2.1-1.1-5.6-3.5-3.5c-11.9,10.1-23.9,20.2-35.8,30.2
			C883,971.6,886.5,975.1,889,973L889,973z"/>
	</g>
</g>
<g>
	<g>
		<path class="st1" d="M894.3,872.7c-11.6-5.1-22.5-11.5-32.5-19.2c-2.5-2-5,2.4-2.5,4.3c10,7.7,20.9,14.2,32.5,19.2
			C894.7,878.3,897.3,874,894.3,872.7L894.3,872.7z"/>
	</g>
</g>
<g>
	<g>
		<path class="st1" d="M993.5,881c0-9.3,0-18.7,0-28c0-3.2-5-3.2-5,0c0,9.3,0,18.7,0,28C988.5,884.2,993.5,884.2,993.5,881
			L993.5,881z"/>
	</g>
</g>
<g>
	<g>
		<path class="st1" d="M996.2,941.9c10.7,11.2,21.5,22.5,32.2,33.7c2.2,2.3,5.8-1.2,3.5-3.5c-10.7-11.2-21.5-22.5-32.2-33.7
			C997.5,936,993.9,939.6,996.2,941.9L996.2,941.9z"/>
	</g>
</g>
<g>
	<g>
		<path class="st1" d="M1052.6,916.6c10.8-13.2,21.6-26.4,32.4-39.7c2-2.5-1.5-6-3.5-3.5c-10.8,13.2-21.6,26.4-32.4,39.7
			C1047,915.6,1050.6,919.1,1052.6,916.6L1052.6,916.6z"/>
	</g>
</g>
<g>
	<g>
		<path class="st1" d="M1130.3,917c0.5,16.2-1.9,32.2-7.1,47.5c-1,3.1,3.8,4.4,4.8,1.3c5.4-15.8,7.8-32.2,7.3-48.9
			C1135.2,913.8,1130.2,913.8,1130.3,917L1130.3,917z"/>
	</g>
</g>
<g>
	<g>
		<path class="st1" d="M1219.7,878.3c-9.8-10.7-14.7-24.7-13.8-39.2c0.2-3.2-4.8-3.2-5,0c-1,15.8,4.5,31.1,15.2,42.8
			C1218.3,884.2,1221.8,880.6,1219.7,878.3L1219.7,878.3z"/>
	</g>
</g>
<g>
	<g>
		<path class="st1" d="M1213.6,957.5c8.8,4.4,17.6,8.9,26.4,13.3c2.9,1.4,5.4-2.9,2.5-4.3c-8.8-4.4-17.6-8.9-26.4-13.3
			C1213.2,951.8,1210.7,956.1,1213.6,957.5L1213.6,957.5z"/>
	</g>
</g>
<g>
	<g>
		<path class="st1" d="M1265.1,915.1c12.2-12.3,22.8-26.1,31.5-41.1c1.6-2.8-2.7-5.3-4.3-2.5c-8.5,14.7-18.8,28.1-30.8,40.1
			C1259.3,913.8,1262.8,917.4,1265.1,915.1L1265.1,915.1z"/>
	</g>
</g>
<g>
	<g>
		<path class="st1" d="M1339.6,864.3c12.9,11,22.3,25.1,27.2,41.3c0.9,3.1,5.8,1.8,4.8-1.3c-5.2-17-15-32-28.5-43.5
			C1340.7,858.7,1337.2,862.2,1339.6,864.3L1339.6,864.3z"/>
	</g>
</g>
<g>
	<g>
		<path class="st1" d="M1326.6,941c0.1,11.2-0.7,22.3-2.4,33.3c-0.5,3.1,4.3,4.5,4.8,1.3c1.7-11.5,2.6-23,2.6-34.6
			C1331.6,937.8,1326.6,937.8,1326.6,941L1326.6,941z"/>
	</g>
</g>
<g>
	<g>
		<path class="st1" d="M812.8,796c-5.8-9.4-11.7-18.9-17.5-28.3c-1.7-2.7-6-0.2-4.3,2.5c5.8,9.4,11.7,18.9,17.5,28.3
			C810.2,801.2,814.5,798.7,812.8,796L812.8,796z"/>
	</g>
</g>
<g>
	<g>
		<path class="st1" d="M701.8,37.1c12.6,6.1,25.3,12.1,37.9,18.2c2.9,1.4,5.4-2.9,2.5-4.3c-12.6-6.1-25.3-12.1-37.9-18.2
			C701.4,31.4,698.9,35.7,701.8,37.1L701.8,37.1z"/>
	</g>
</g>
<g>
	<g>
		<path class="st1" d="M831,29.1c-1.8,16-7.4,31.2-16.3,44.6c-1.8,2.7,2.5,5.2,4.3,2.5c9.4-14.2,15.1-30.2,17-47.1
			C836.4,25.9,831.4,25.9,831,29.1L831,29.1z"/>
	</g>
</g>
<g>
	<g>
		<path class="st1" d="M770.3,79.4c-9.3,14.6-16.5,30.4-21.4,47c-0.9,3.1,3.9,4.4,4.8,1.3c4.8-16.2,11.8-31.6,20.9-45.8
			C776.4,79.2,772.1,76.7,770.3,79.4L770.3,79.4z"/>
	</g>
</g>
<g>
	<g>
		<path class="st1" d="M655.2,86.1c7.8,23,19.2,44.6,34,63.9c1.9,2.5,6.3,0,4.3-2.5c-14.5-19-25.8-40.1-33.5-62.7
			C659,81.8,654.1,83.1,655.2,86.1L655.2,86.1z"/>
	</g>
</g>
<g>
	<g>
		<path class="st1" d="M663.9,182.1c-12.2,9.7-22.1,21.8-29.3,35.6c-1.5,2.8,2.8,5.4,4.3,2.5c7-13.5,16.6-25.1,28.5-34.5
			C669.9,183.6,666.4,180.1,663.9,182.1L663.9,182.1z"/>
	</g>
</g>
<g>
	<g>
		<path class="st1" d="M818,134.5c3.9,6.2,10.3,8.8,17,11.1c9.7,3.3,19.5,6.6,29.2,9.9c3.1,1,4.4-3.8,1.3-4.8
			c-7.9-2.7-15.8-5.3-23.7-8c-6.9-2.3-15.4-4.1-19.5-10.7C820.6,129.3,816.3,131.8,818,134.5L818,134.5z"/>
	</g>
</g>
<g>
	<g>
		<path class="st1" d="M903.5,43.4c12.3,9,22.9,20.1,31.5,32.7c1.8,2.6,6.1,0.1,4.3-2.5c-9.1-13.4-20.3-24.9-33.3-34.5
			C903.5,37.2,901,41.5,903.5,43.4L903.5,43.4z"/>
	</g>
</g>
<g>
	<g>
		<path class="st1" d="M905.5,128.9c13.4-5.2,26.8-10.4,40.2-15.5c3-1.1,1.7-6-1.3-4.8c-13.4,5.2-26.8,10.4-40.2,15.5
			C901.2,125.2,902.4,130,905.5,128.9L905.5,128.9z"/>
	</g>
</g>
<g>
	<g>
		<path class="st1" d="M1008.8,78.3c6.3,10.6,11.8,21.7,16.4,33.1c1.2,2.9,6,1.7,4.8-1.3c-4.8-11.9-10.4-23.3-16.9-34.3
			C1011.5,73,1007.1,75.5,1008.8,78.3L1008.8,78.3z"/>
	</g>
</g>
<g>
	<g>
		<path class="st1" d="M1132.9,31c-1.9,15.4-8.1,30-17.7,42.2c-2,2.5,1.5,6.1,3.5,3.5c10.5-13.3,17-28.8,19.2-45.7
			C1138.3,27.9,1133.3,27.9,1132.9,31L1132.9,31z"/>
	</g>
</g>
<g>
	<g>
		<path class="st1" d="M1117,121.7c10.1,0.6,19.8,2.5,29.3,5.7c3.1,1,4.4-3.8,1.3-4.8c-9.9-3.4-20.2-5.3-30.7-5.9
			C1113.8,116.5,1113.8,121.5,1117,121.7L1117,121.7z"/>
	</g>
</g>
<g>
	<g>
		<path class="st1" d="M1189.1,80.2c4.7-9.3,9.4-18.6,14.1-27.9c1.4-2.9-2.9-5.4-4.3-2.5c-4.7,9.3-9.4,18.6-14.1,27.9
			C1183.3,80.6,1187.6,83.1,1189.1,80.2L1189.1,80.2z"/>
	</g>
</g>
<g>
	<g>
		<path class="st1" d="M1280.5,25.7c19.1,10.7,34,27.2,42.8,47.2c1.3,2.9,5.6,0.4,4.3-2.5c-9.1-20.7-24.8-38-44.6-49
			C1280.2,19.8,1277.7,24.1,1280.5,25.7L1280.5,25.7z"/>
	</g>
</g>
<g>
	<g>
		<path class="st1" d="M1251.6,92.5c-1.7,12.6-3.4,25.2-5.2,37.8c-0.4,3.1,4.4,4.5,4.8,1.3c1.7-12.6,3.4-25.2,5.2-37.8
			C1256.9,90.7,1252,89.3,1251.6,92.5L1251.6,92.5z"/>
	</g>
</g>
<g>
	<g>
		<path class="st1" d="M1319.9,136.6c9.3-5.9,19.2-10.1,29.9-12.8c3.1-0.8,1.8-5.6-1.3-4.8c-11,2.7-21.5,7.2-31.1,13.3
			C1314.6,134,1317.1,138.3,1319.9,136.6L1319.9,136.6z"/>
	</g>
</g>
<g>
	<g>
		<path class="st1" d="M1926.3,31.6c13.1,12.1,22.4,27.2,27.3,44.4c0.9,3.1,5.7,1.8,4.8-1.3c-5.1-17.9-14.9-33.9-28.6-46.6
			C1927.5,25.9,1923.9,29.4,1926.3,31.6L1926.3,31.6z"/>
	</g>
</g>
<g>
	<g>
		<path class="st1" d="M1886,49.9c-11.3,4.7-21.2,11.7-29.1,21.1c-2.1,2.4,1.5,6,3.5,3.5c7.3-8.7,16.4-15.5,26.9-19.9
			C1890.3,53.5,1889,48.6,1886,49.9L1886,49.9z"/>
	</g>
</g>
<g>
	<g>
		<path class="st1" d="M1811.6,39c-11.3-1.6-22.6-3.2-33.9-4.8c-3.1-0.4-4.5,4.4-1.3,4.8c11.3,1.6,22.6,3.2,33.9,4.8
			C1813.4,44.3,1814.8,39.4,1811.6,39L1811.6,39z"/>
	</g>
</g>
<g>
	<g>
		<path class="st1" d="M1822,98.2c-3.1,12.7-6.2,25.5-9.2,38.2c-0.8,3.1,4.1,4.5,4.8,1.3c3.1-12.7,6.2-25.5,9.2-38.2
			C1827.6,96.4,1822.8,95.1,1822,98.2L1822,98.2z"/>
	</g>
</g>
<g>
	<g>
		<path class="st1" d="M1909.8,91.3c-5.8,13.5-7.4,27.8-4.9,42.3c0.6,3.2,5.4,1.8,4.8-1.3c-2.3-13-0.8-26.3,4.4-38.5
			C1915.4,90.9,1911.1,88.3,1909.8,91.3L1909.8,91.3z"/>
	</g>
</g>
<g>
	<g>
		<path class="st1" d="M1867.6,153.3c8.1,5.9,16.1,11.8,24.2,17.8c2.6,1.9,5.1-2.4,2.5-4.3c-8.1-5.9-16.1-11.8-24.2-17.8
			C1867.6,147.1,1865.1,151.4,1867.6,153.3L1867.6,153.3z"/>
	</g>
</g>
<g>
	<g>
		<path class="st1" d="M1952.3,124.7c-2.1,20.3,21.4,30.6,24.8,49.2c0.6,3.2,5.4,1.8,4.8-1.3c-1.7-8.9-7.4-16-13-22.9
			c-5.9-7.3-12.7-15-11.6-25C1957.7,121.5,1952.7,121.5,1952.3,124.7L1952.3,124.7z"/>
	</g>
</g>
<g>
	<g>
		<path class="st1" d="M1955.6,195.7c-12.6,10.6-23.3,23.2-31.8,37.4c-1.7,2.8,2.7,5.3,4.3,2.5c8.3-13.8,18.7-26,31.1-36.4
			C1961.6,197.2,1958.1,193.6,1955.6,195.7L1955.6,195.7z"/>
	</g>
</g>
<g>
	<g>
		<path class="st1" d="M1872.5,213c0,10.7,0,21.3,0,32c0,3.2,5,3.2,5,0c0-10.7,0-21.3,0-32C1877.5,209.8,1872.5,209.8,1872.5,213
			L1872.5,213z"/>
	</g>
</g>
<g>
	<g>
		<path class="st1" d="M1955.9,257.8c3.6,13.9,7.1,27.9,10.7,41.8c0.8,3.1,5.6,1.8,4.8-1.3c-3.6-13.9-7.1-27.9-10.7-41.8
			C1959.9,253.4,1955.1,254.7,1955.9,257.8L1955.9,257.8z"/>
	</g>
</g>
<g>
	<g>
		<path class="st1" d="M1897.4,275.4c-8.7,10-17.4,19.9-26.1,29.9c-2.1,2.4,1.4,6,3.5,3.5c8.7-10,17.4-19.9,26.1-29.9
			C1903.1,276.5,1899.6,273,1897.4,275.4L1897.4,275.4z"/>
	</g>
</g>
<g>
	<g>
		<path class="st1" d="M1930.2,322.2c-6.5,17.3-4,37,6.6,52.1c1.8,2.6,6.2,0.1,4.3-2.5c-9.9-14.2-12.2-32.1-6.1-48.3
			C1936.1,320.5,1931.3,319.2,1930.2,322.2L1930.2,322.2z"/>
	</g>
</g>
<g>
	<g>
		<path class="st1" d="M1951.6,383.7c-14.1,11.5-29.5,21.3-45.9,29.1c-2.9,1.4-0.4,5.7,2.5,4.3c16.8-8.1,32.5-18.1,46.9-29.9
			C1957.6,385.2,1954.1,381.7,1951.6,383.7L1951.6,383.7z"/>
	</g>
</g>
<g>
	<g>
		<path class="st1" d="M1873,335c-10.8,10.5-21.6,21.1-32.4,31.6c-2.3,2.3,1.2,5.8,3.5,3.5c10.8-10.5,21.6-21.1,32.4-31.6
			C1878.9,336.3,1875.3,332.8,1873,335L1873,335z"/>
	</g>
</g>
<g>
	<g>
		<path class="st1" d="M1815.8,188.9c-10.4,7-20.1,15-29,23.9c-2.3,2.3,1.3,5.8,3.5,3.5c8.6-8.6,17.9-16.3,28-23.1
			C1821,191.4,1818.5,187.1,1815.8,188.9L1815.8,188.9z"/>
	</g>
</g>
<g>
	<g>
		<path class="st1" d="M1833.6,289.2c-17.3-2.6-33.9-8.1-49.2-16.6c-2.8-1.6-5.3,2.8-2.5,4.3c15.7,8.7,32.6,14.5,50.4,17.1
			C1835.4,294.5,1836.8,289.7,1833.6,289.2L1833.6,289.2z"/>
	</g>
</g>
<g>
	<g>
		<path class="st1" d="M1764.2,92.2c-18,3.9-36,7.8-54.1,11.8c-3.1,0.7-1.8,5.5,1.3,4.8c18-3.9,36-7.8,54.1-11.8
			C1768.7,96.3,1767.4,91.5,1764.2,92.2L1764.2,92.2z"/>
	</g>
</g>
<g>
	<g>
		<path class="st1" d="M1711.2,41.7c-17.4,8.5-34.6,17.6-51.3,27.3c-2.8,1.6-0.3,5.9,2.5,4.3c16.8-9.7,33.9-18.8,51.3-27.3
			C1716.6,44.6,1714.1,40.3,1711.2,41.7L1711.2,41.7z"/>
	</g>
</g>
<g>
	<g>
		<path class="st1" d="M1561.5,43.3c-13.5-2.7-26.7-6.7-39.4-12.2c-2.9-1.3-5.5,3-2.5,4.3c13.1,5.7,26.6,10,40.6,12.7
			C1563.3,48.7,1564.7,43.9,1561.5,43.3L1561.5,43.3z"/>
	</g>
</g>
<g>
	<g>
		<path class="st1" d="M1425.5,30.2c-2.6,17.6-5.8,35.1-9.5,52.5c-0.7,3.1,4.1,4.5,4.8,1.3c3.7-17.4,6.9-34.9,9.5-52.5
			C1430.8,28.4,1425.9,27,1425.5,30.2L1425.5,30.2z"/>
	</g>
</g>
<g>
	<g>
		<path class="st1" d="M1509.2,84.5c-3.1,15.6-9.2,30.3-18.1,43.4c-1.8,2.7,2.5,5.2,4.3,2.5c9.2-13.5,15.5-28.6,18.7-44.6
			C1514.6,82.6,1509.8,81.3,1509.2,84.5L1509.2,84.5z"/>
	</g>
</g>
<g>
	<g>
		<path class="st1" d="M1424.3,136.2c-9.5,1.9-18.3,5.6-26.3,10.9c-2.7,1.8-0.2,6.1,2.5,4.3c7.7-5.1,16-8.6,25.1-10.4
			C1428.7,140.3,1427.4,135.5,1424.3,136.2L1424.3,136.2z"/>
	</g>
</g>
<g>
	<g>
		<path class="st1" d="M1597.6,109.9c5.4,19.8,10.4,39.7,15.1,59.7c0.7,3.1,5.5,1.8,4.8-1.3c-4.6-20-9.7-39.9-15.1-59.7
			C1601.6,105.5,1596.8,106.8,1597.6,109.9L1597.6,109.9z"/>
	</g>
</g>
<g>
	<g>
		<path class="st1" d="M1719.3,173.3c-11.4,13.9-22.8,27.9-34.2,41.8c-2,2.5,1.5,6,3.5,3.5c11.4-13.9,22.8-27.9,34.2-41.8
			C1724.9,174.4,1721.4,170.8,1719.3,173.3L1719.3,173.3z"/>
	</g>
</g>
<g>
	<g>
		<path class="st1" d="M1650.5,237.7c6.2,17.3,12.3,34.5,18.5,51.8c1.1,3,5.9,1.7,4.8-1.3c-6.2-17.3-12.3-34.5-18.5-51.8
			C1654.3,233.3,1649.4,234.6,1650.5,237.7L1650.5,237.7z"/>
	</g>
</g>
<g>
	<g>
		<path class="st1" d="M1729.3,264.5c-3.4,20-5.1,40.2-5,60.5c0,3.2,5,3.2,5,0c-0.1-19.9,1.5-39.6,4.8-59.2
			C1734.7,262.6,1729.8,261.3,1729.3,264.5L1729.3,264.5z"/>
	</g>
</g>
<g>
	<g>
		<path class="st1" d="M1774.7,333.7c-7.5,17.5-20.2,32-36.8,41.5c-2.8,1.6-0.3,5.9,2.5,4.3c17.2-9.9,30.8-25,38.6-43.3
			C1780.3,333.3,1776,330.7,1774.7,333.7L1774.7,333.7z"/>
	</g>
</g>
<g>
	<g>
		<path class="st1" d="M1967.4,421.3c5.5,14,8.4,28.6,8.6,43.7c0,3.2,5,3.2,5,0c-0.1-15.5-3.1-30.6-8.7-45
			C1971,417.1,1966.2,418.3,1967.4,421.3L1967.4,421.3z"/>
	</g>
</g>
<g>
	<g>
		<path class="st1" d="M1861.6,404.3c-9.5,13.2-19,26.4-28.5,39.7c-1.9,2.6,2.5,5.1,4.3,2.5c9.5-13.2,19-26.4,28.5-39.7
			C1867.8,404.2,1863.5,401.7,1861.6,404.3L1861.6,404.3z"/>
	</g>
</g>
<g>
	<g>
		<path class="st1" d="M1770.1,387.3c4,16.8,7.9,33.7,11.9,50.5c0.7,3.1,5.6,1.8,4.8-1.3c-4-16.8-7.9-33.7-11.9-50.5
			C1774.2,382.8,1769.4,384.2,1770.1,387.3L1770.1,387.3z"/>
	</g>
</g>
<g>
	<g>
		<path class="st1" d="M1889.3,451.3c-15,13.4-32.2,23.9-51,31.1c-3,1.1-1.7,6,1.3,4.8c19.6-7.5,37.6-18.4,53.2-32.4
			C1895.2,452.7,1891.7,449.1,1889.3,451.3L1889.3,451.3z"/>
	</g>
</g>
<g>
	<g>
		<path class="st1" d="M1922.6,469.7c7.6,20.1,17.8,39,30.5,56.4c1.9,2.6,6.2,0.1,4.3-2.5c-12.4-17-22.5-35.6-30-55.2
			C1926.3,465.4,1921.4,466.6,1922.6,469.7L1922.6,469.7z"/>
	</g>
</g>
<g>
	<g>
		<path class="st1" d="M1970.7,550.6c-11.1,12.1-23.7,22.5-37.6,31.1c-2.7,1.7-0.2,6,2.5,4.3c14.3-8.9,27.3-19.6,38.7-31.9
			C1976.4,551.7,1972.9,548.2,1970.7,550.6L1970.7,550.6z"/>
	</g>
</g>
<g>
	<g>
		<path class="st1" d="M1893.8,533c-18.4,6.5-35.8,15.1-51.9,26c-2.7,1.8-0.2,6.1,2.5,4.3c15.8-10.6,32.8-19.2,50.8-25.5
			C1898.1,536.8,1896.8,531.9,1893.8,533L1893.8,533z"/>
	</g>
</g>
<g>
	<g>
		<path class="st1" d="M1790.8,479c-1.4,11.3-2.7,22.7-4.1,34c-0.4,3.2,4.6,3.2,5,0c1.4-11.3,2.7-22.7,4.1-34
			C1796.2,475.9,1791.2,475.9,1790.8,479L1790.8,479z"/>
	</g>
</g>
<g>
	<g>
		<path class="st1" d="M1743.4,456.2c-17.8,9.5-33,22.6-45.3,38.5c-2,2.6,2.4,5,4.3,2.5c11.7-15.3,26.5-27.7,43.5-36.7
			C1748.8,459,1746.2,454.7,1743.4,456.2L1743.4,456.2z"/>
	</g>
</g>
<g>
	<g>
		<path class="st1" d="M1623.4,376.1c-8.1,15.3-16.2,30.6-24.3,45.8c-1.5,2.8,2.8,5.4,4.3,2.5c8.1-15.3,16.2-30.6,24.3-45.8
			C1629.3,375.7,1624.9,373.2,1623.4,376.1L1623.4,376.1z"/>
	</g>
</g>
<g>
	<g>
		<path class="st1" d="M1607.4,311.4c-11.4-4-22.4-9-32.9-14.9c-2.8-1.6-5.3,2.7-2.5,4.3c10.9,6.1,22.3,11.2,34.1,15.4
			C1609.1,317.3,1610.4,312.5,1607.4,311.4L1607.4,311.4z"/>
	</g>
</g>
<g>
	<g>
		<path class="st1" d="M1552.5,182.5c-12.7,13.3-22.5,28.9-29.1,46.1c-1.2,3,3.7,4.3,4.8,1.3c6.3-16.4,15.7-31.2,27.9-43.9
			C1558.2,183.7,1554.7,180.1,1552.5,182.5L1552.5,182.5z"/>
	</g>
</g>
<g>
	<g>
		<path class="st1" d="M1746,552.9c-2,18.7-9,36.3-20.3,51.4c-1.9,2.6,2.4,5.1,4.3,2.5c11.8-15.8,18.9-34.4,21-54
			C1751.3,549.8,1746.3,549.8,1746,552.9L1746,552.9z"/>
	</g>
</g>
<g>
	<g>
		<path class="st1" d="M1715.7,643.1c16.4,7.8,32.3,16.8,47.5,26.8c2.7,1.8,5.2-2.6,2.5-4.3c-15.2-10-31.1-18.9-47.5-26.8
			C1715.4,637.5,1712.8,641.8,1715.7,643.1L1715.7,643.1z"/>
	</g>
</g>
<g>
	<g>
		<path class="st1" d="M1812.9,588.2c6.5,10.8,13,21.5,19.5,32.3c1.7,2.8,6,0.2,4.3-2.5c-6.5-10.8-13-21.5-19.5-32.3
			C1815.6,582.9,1811.3,585.4,1812.9,588.2L1812.9,588.2z"/>
	</g>
</g>
<g>
	<g>
		<path class="st1" d="M1923.7,620.5c-3.2,16.9-10.2,32.8-20.9,46.3c-2,2.5,1.5,6.1,3.5,3.5c11.2-14.2,18.9-30.7,22.2-48.5
			C1929.1,618.7,1924.3,617.4,1923.7,620.5L1923.7,620.5z"/>
	</g>
</g>
<g>
	<g>
		<path class="st1" d="M1850.1,657c-0.7,21.6,5.3,42.9,17.2,60.9c1.8,2.7,6.1,0.2,4.3-2.5c-11.5-17.4-17.2-37.6-16.5-58.4
			C1855.3,653.8,1850.3,653.8,1850.1,657L1850.1,657z"/>
	</g>
</g>
<g>
	<g>
		<path class="st1" d="M1955.5,650c5.4,14.9,13.5,28.5,24.2,40.3c2.2,2.4,5.7-1.1,3.5-3.5c-10-11.1-17.8-24-22.9-38.1
			C1959.3,645.7,1954.4,647,1955.5,650L1955.5,650z"/>
	</g>
</g>
<g>
	<g>
		<path class="st1" d="M1933.3,710c-5.4,12-10.7,24-16.1,36c-1.3,2.9,3,5.5,4.3,2.5c5.4-12,10.7-24,16.1-36
			C1939,709.6,1934.7,707,1933.3,710L1933.3,710z"/>
	</g>
</g>
<g>
	<g>
		<path class="st1" d="M1952.8,752.2c-3.8,21.9,15.8,37.6,20.7,57.6c0.8,3.1,5.6,1.8,4.8-1.3c-2.3-9.5-7.5-17.8-12.3-26.2
			c-5.1-8.8-10.2-18.3-8.4-28.8C1958.2,750.4,1953.3,749,1952.8,752.2L1952.8,752.2z"/>
	</g>
</g>
<g>
	<g>
		<path class="st1" d="M1806.1,703.4c-14.1,8.6-28.1,17.2-42.2,25.7c-2.7,1.7-0.2,6,2.5,4.3c14.1-8.6,28.1-17.2,42.2-25.7
			C1811.3,706,1808.8,701.7,1806.1,703.4L1806.1,703.4z"/>
	</g>
</g>
<g>
	<g>
		<path class="st1" d="M1823.9,761.6c7.5,13,14.9,26,22.4,38.9c1.6,2.8,5.9,0.3,4.3-2.5c-7.5-13-14.9-26-22.4-38.9
			C1826.7,756.3,1822.3,758.8,1823.9,761.6L1823.9,761.6z"/>
	</g>
</g>
<g>
	<g>
		<path class="st1" d="M1389.9,966.1c11.9-4.8,23.9-9.7,35.8-14.5c2.9-1.2,1.7-6-1.3-4.8c-11.9,4.8-23.9,9.7-35.8,14.5
			C1385.7,962.4,1386.9,967.3,1389.9,966.1L1389.9,966.1z"/>
	</g>
</g>
<g>
	<g>
		<path class="st1" d="M1422.4,871.8c22.6,10.9,45.9,20.4,69.6,28.7c3,1.1,4.4-3.8,1.3-4.8c-23.3-8.1-46.1-17.5-68.4-28.2
			C1422,866.1,1419.5,870.4,1422.4,871.8L1422.4,871.8z"/>
	</g>
</g>
<g>
	<g>
		<path class="st1" d="M1546.8,911c-0.3,19.2-6.5,37.4-17.8,52.9c-1.9,2.6,2.4,5.1,4.3,2.5c11.8-16.2,18.1-35.5,18.4-55.4
			C1551.9,907.8,1546.9,907.8,1546.8,911L1546.8,911z"/>
	</g>
</g>
<g>
	<g>
		<path class="st1" d="M1596,952.8c9.6,7.3,18.7,15.4,27.1,24.1c2.2,2.3,5.8-1.2,3.5-3.5c-8.7-9-18.1-17.3-28.1-24.9
			C1595.9,946.6,1593.4,950.9,1596,952.8L1596,952.8z"/>
	</g>
</g>
<g>
	<g>
		<path class="st1" d="M1595.5,897c0-16.7,0-33.3,0-50c0-3.2-5-3.2-5,0c0,16.7,0,33.3,0,50C1590.5,900.2,1595.5,900.2,1595.5,897
			L1595.5,897z"/>
	</g>
</g>
<g>
	<g>
		<path class="st1" d="M1539,822.6c-13.2-0.8-25.6-4.7-37-11.4c-2.8-1.6-5.3,2.7-2.5,4.3c12.1,7.2,25.5,11.3,39.5,12.1
			C1542.2,827.8,1542.2,822.8,1539,822.6L1539,822.6z"/>
	</g>
</g>
<g>
	<g>
		<path class="st1" d="M1562.5,725.4c11,11,20.3,23.4,27.8,37.1c1.6,2.8,5.9,0.3,4.3-2.5c-7.7-14-17.3-26.8-28.6-38.1
			C1563.8,719.6,1560.3,723.2,1562.5,725.4L1562.5,725.4z"/>
	</g>
</g>
<g>
	<g>
		<path class="st1" d="M1650.8,573c-0.2,16.6-2.5,33.1-6.8,49.2c-0.8,3.1,4,4.4,4.8,1.3c4.4-16.5,6.8-33.4,7-50.5
			C1655.8,569.8,1650.8,569.8,1650.8,573L1650.8,573z"/>
	</g>
</g>
<g>
	<g>
		<path class="st1" d="M1680.3,693c1.2,9.5,6.8,16.9,13,24c6.6,7.6,14.6,15.5,14.9,26.1c0.1,3.2,5.1,3.2,5,0
			c-0.4-21.1-25.2-30.1-27.8-50.1C1684.9,689.8,1679.9,689.8,1680.3,693L1680.3,693z"/>
	</g>
</g>
<g>
	<g>
		<path class="st1" d="M1657.5,748.8c-11.3,16.6-17.2,36.1-17.2,56.2c0,3.2,5,3.2,5,0c0-19.2,5.7-37.7,16.5-53.7
			C1663.6,748.7,1659.3,746.2,1657.5,748.8L1657.5,748.8z"/>
	</g>
</g>
<g>
	<g>
		<path class="st1" d="M1671,835.2c20.4,2,40.2,6.9,59.3,14.3c3,1.2,4.3-3.7,1.3-4.8c-19.5-7.6-39.8-12.4-60.6-14.5
			C1667.8,829.8,1667.9,834.8,1671,835.2L1671,835.2z"/>
	</g>
</g>
<g>
	<g>
		<path class="st1" d="M1764.5,791c0,18.7,0,37.3,0,56c0,3.2,5,3.2,5,0c0-18.7,0-37.3,0-56C1769.5,787.8,1764.5,787.8,1764.5,791
			L1764.5,791z"/>
	</g>
</g>
<g>
	<g>
		<path class="st1" d="M1657.6,888.9c7.9,15.9,14.9,32.1,21,48.8c1.1,3,5.9,1.7,4.8-1.3c-6.2-17.1-13.4-33.7-21.5-50
			C1660.5,883.5,1656.1,886,1657.6,888.9L1657.6,888.9z"/>
	</g>
</g>
<g>
	<g>
		<path class="st1" d="M1724.3,925.2c10.5-7.1,21.7-13,33.5-17.5c3-1.1,1.7-6-1.3-4.8c-12.2,4.7-23.8,10.7-34.7,18
			C1719.1,922.6,1721.6,927,1724.3,925.2L1724.3,925.2z"/>
	</g>
</g>
<g>
	<g>
		<path class="st1" d="M1720.9,951.8c-9.5,14-20.1,27.2-31.7,39.4c-2.2,2.3,1.3,5.9,3.5,3.5c11.9-12.6,22.8-26.1,32.5-40.4
			C1727,951.6,1722.7,949.1,1720.9,951.8L1720.9,951.8z"/>
	</g>
</g>
<g>
	<g>
		<path class="st1" d="M1825.3,836.7c6.5,8.2,14.8,14.5,24.4,18.6c2.9,1.2,5.5-3.1,2.5-4.3c-9.3-3.9-17.1-9.9-23.4-17.8
			C1826.8,830.7,1823.3,834.2,1825.3,836.7L1825.3,836.7z"/>
	</g>
</g>
<g>
	<g>
		<path class="st1" d="M1911.9,814.9c-1.8,17.2-4.2,34.4-7.1,51.4c-0.5,3.1,4.3,4.5,4.8,1.3c3-17.5,5.4-35.1,7.2-52.8
			C1917.3,811.7,1912.3,811.8,1911.9,814.9L1911.9,814.9z"/>
	</g>
</g>
<g>
	<g>
		<path class="st1" d="M1987.2,839.9c-8.8,18.3-22.4,33.7-39.6,44.7c-2.7,1.7-0.2,6.1,2.5,4.3c17.9-11.4,32.2-27.4,41.4-46.5
			C1992.9,839.5,1988.6,837,1987.2,839.9L1987.2,839.9z"/>
	</g>
</g>
<g>
	<g>
		<path class="st1" d="M1812,893.1c1.8,14.2,7.7,27.1,17.4,37.6c2.2,2.4,5.7-1.2,3.5-3.5c-8.7-9.5-14.3-21.2-15.9-34
			C1816.6,889.9,1811.6,889.9,1812,893.1L1812,893.1z"/>
	</g>
</g>
<g>
	<g>
		<path class="st1" d="M1785,969.3c11.9-0.6,23.1,2.8,32.6,10c2.6,1.9,5.1-2.4,2.5-4.3c-10.1-7.6-22.5-11.3-35.1-10.7
			C1781.8,964.5,1781.8,969.5,1785,969.3L1785,969.3z"/>
	</g>
</g>
<g>
	<g>
		<path class="st1" d="M1891.8,898.2c12.7,12.7,25.3,25.4,38,38c2.3,2.3,5.8-1.3,3.5-3.5c-12.7-12.7-25.3-25.4-38-38
			C1893.1,892.4,1889.5,895.9,1891.8,898.2L1891.8,898.2z"/>
	</g>
</g>
<g>
	<g>
		<path class="st1" d="M1967.2,927.8c-19.3,10.4-36.8,23.6-52.1,39.3c-2.2,2.3,1.3,5.8,3.5,3.5c15-15.4,32.2-28.3,51.1-38.5
			C1972.6,930.6,1970,926.3,1967.2,927.8L1967.2,927.8z"/>
	</g>
</g>
<g>
	<g>
		<path class="st1" d="M1852.9,951.6c2.6,13.4,8.8,25.5,18,35.5c2.2,2.4,5.7-1.2,3.5-3.5c-8.6-9.5-14.2-20.8-16.7-33.3
			C1857.1,947.1,1852.2,948.5,1852.9,951.6L1852.9,951.6z"/>
	</g>
</g>
<g>
	<g>
		<path class="st1" d="M1039.2,14.1c10.2,12.2,18.5,25.7,24.8,40.3c1.3,2.9,5.6,0.4,4.3-2.5c-6.5-15-15-28.8-25.5-41.3
			C1040.7,8.1,1037.1,11.6,1039.2,14.1L1039.2,14.1z"/>
	</g>
</g>
<g>
	<g>
		<path class="st1" d="M1065.2,129.7c-9.9,18.2-17.3,37.6-22,57.8c-0.7,3.1,4.1,4.5,4.8,1.3c4.6-19.8,11.8-38.8,21.5-56.6
			C1071.1,129.4,1066.8,126.9,1065.2,129.7L1065.2,129.7z"/>
	</g>
</g>
<g>
	<g>
		<path class="st1" d="M951.7,167.2c-2.3,21.5-4.5,42.9-6.8,64.4c-0.3,3.2,4.7,3.2,5,0c2.3-21.5,4.5-42.9,6.8-64.4
			C957.1,164,952.1,164,951.7,167.2L951.7,167.2z"/>
	</g>
</g>
<g>
	<g>
		<path class="st1" d="M867.3,207.7c-19.8,7.7-39,17.1-57.2,28c-2.8,1.7-0.2,6,2.5,4.3c17.9-10.7,36.6-19.9,56-27.5
			C871.6,211.4,870.3,206.6,867.3,207.7L867.3,207.7z"/>
	</g>
</g>
<g>
	<g>
		<path class="st1" d="M742.6,186.6c0,16.5,0,33,0,49.5c0,3.2,5,3.2,5,0c0-16.5,0-33,0-49.5C747.6,183.4,742.6,183.4,742.6,186.6
			L742.6,186.6z"/>
	</g>
</g>
<g>
	<g>
		<path class="st1" d="M670.6,274c13.8,10.3,26.4,21.9,37.8,34.8c2.1,2.4,5.7-1.1,3.5-3.5c-11.7-13.2-24.6-25.1-38.8-35.6
			C670.5,267.7,668,272.1,670.6,274L670.6,274z"/>
	</g>
</g>
<g>
	<g>
		<path class="st1" d="M611.9,300.6c-0.1,22.9,1.8,45.7,5.7,68.3c0.5,3.2,5.4,1.8,4.8-1.3c-3.8-22.1-5.6-44.5-5.5-66.9
			C617,297.4,612,297.4,611.9,300.6L611.9,300.6z"/>
	</g>
</g>
<g>
	<g>
		<path class="st1" d="M573.6,398.6c11.2,12.3,22.8,24.2,35,35.5c2.4,2.2,5.9-1.3,3.5-3.5c-12.2-11.3-23.8-23.2-35-35.5
			C575,392.7,571.4,396.2,573.6,398.6L573.6,398.6z"/>
	</g>
</g>
<g>
	<g>
		<path class="st1" d="M686.1,359.7c4.3,16.5,6.1,33.4,5.5,50.4c-0.1,3.2,4.9,3.2,5,0c0.7-17.5-1.2-34.9-5.6-51.8
			C690.1,355.2,685.3,356.5,686.1,359.7L686.1,359.7z"/>
	</g>
</g>
<g>
	<g>
		<path class="st1" d="M631.6,515.2c14-3.4,28-6.9,42-10.3c3.1-0.8,1.8-5.6-1.3-4.8c-14,3.4-28,6.9-42,10.3
			C627.1,511.2,628.4,516,631.6,515.2L631.6,515.2z"/>
	</g>
</g>
<g>
	<g>
		<path class="st1" d="M703,559.6c7.2,15.3,11.6,31.6,13,48.5c0.3,3.2,5.3,3.2,5,0c-1.6-17.8-6.2-34.9-13.7-51
			C706,554.1,701.7,556.7,703,559.6L703,559.6z"/>
	</g>
</g>
<g>
	<g>
		<path class="st1" d="M652.1,658.7c15.2-1.6,30.2,1.2,43.7,8.5c2.8,1.5,5.4-2.8,2.5-4.3c-14.2-7.6-30.2-10.8-46.3-9.1
			C649,654.1,648.9,659.1,652.1,658.7L652.1,658.7z"/>
	</g>
</g>
<g>
	<g>
		<path class="st1" d="M762.8,685c-6.8,14.7-16.4,27.6-28.4,38.4c-2.4,2.1,1.1,5.7,3.5,3.5c12.4-11,22.3-24.3,29.2-39.4
			C768.5,684.6,764.2,682.1,762.8,685L762.8,685z"/>
	</g>
</g>
<g>
	<g>
		<path class="st1" d="M945.8,732.7c-2.3,18.4-5.8,36.6-10.4,54.5c-0.8,3.1,4,4.5,4.8,1.3c4.7-18.4,8.2-37,10.6-55.9
			C951.2,729.5,946.2,729.5,945.8,732.7L945.8,732.7z"/>
	</g>
</g>
<g>
	<g>
		<path class="st1" d="M897.3,718.1c-12.5-5-25-10-37.5-15c-3-1.2-4.3,3.6-1.3,4.8c12.5,5,25,10,37.5,15
			C898.9,724.2,900.2,719.3,897.3,718.1L897.3,718.1z"/>
	</g>
</g>
<g>
	<g>
		<path class="st1" d="M935.1,660.6c0-14,0-28,0-42c0-3.2-5-3.2-5,0c0,14,0,28,0,42C930.1,663.8,935.1,663.8,935.1,660.6
			L935.1,660.6z"/>
	</g>
</g>
<g>
	<g>
		<path class="st1" d="M844.9,583.4c-12.6,15.4-23,32.3-31,50.6c-1.3,2.9,3,5.5,4.3,2.5c7.8-17.8,17.9-34.5,30.3-49.6
			C850.4,584.5,846.9,580.9,844.9,583.4L844.9,583.4z"/>
	</g>
</g>
<g>
	<g>
		<path class="st1" d="M917.1,584.9c-4.8-18.1-11.1-35.8-18.9-52.8c-1.3-2.9-5.6-0.4-4.3,2.5c7.6,16.7,13.7,33.9,18.4,51.6
			C913.1,589.3,917.9,588,917.1,584.9L917.1,584.9z"/>
	</g>
</g>
<g>
	<g>
		<path class="st1" d="M748.8,483.5c11.3,20.7,23.7,40.8,37.2,60.2c1.8,2.6,6.2,0.1,4.3-2.5c-13.5-19.4-25.9-39.5-37.2-60.2
			C751.5,478.1,747.2,480.6,748.8,483.5L748.8,483.5z"/>
	</g>
</g>
<g>
	<g>
		<path class="st1" d="M842.6,495.1c6.2-13.4,14.3-25.8,24.2-36.7c2.2-2.4-1.4-5.9-3.5-3.5c-10.2,11.3-18.6,23.9-25,37.7
			C836.9,495.4,841.3,498,842.6,495.1L842.6,495.1z"/>
	</g>
</g>
<g>
	<g>
		<path class="st1" d="M818.6,400c-19.3,0.9-38.4-3-55.8-11.4c-2.9-1.4-5.4,2.9-2.5,4.3c18.2,8.8,38.1,13,58.4,12.1
			C821.8,404.9,821.8,399.9,818.6,400L818.6,400z"/>
	</g>
</g>
<g>
	<g>
		<path class="st1" d="M783.4,315.4c18.6-4.8,36.2-12.3,52.6-22.3c2.7-1.7,0.2-6-2.5-4.3c-16,9.8-33.2,17.1-51.4,21.8
			C778.9,311.4,780.3,316.3,783.4,315.4L783.4,315.4z"/>
	</g>
</g>
<g>
	<g>
		<path class="st1" d="M852.3,349.7c14.3,5.6,25.5,17.5,40.9,20.7c3.1,0.7,4.5-4.2,1.3-4.8c-15.3-3.2-26.6-15.1-40.9-20.7
			C850.7,343.7,849.4,348.5,852.3,349.7L852.3,349.7z"/>
	</g>
</g>
<g>
	<g>
		<path class="st1" d="M906.7,290.6c17.6-11.3,36.6-20.2,56.6-26.4c3.1-1,1.8-5.8-1.3-4.8c-20.4,6.4-39.8,15.4-57.8,26.9
			C901.5,288,904,292.3,906.7,290.6L906.7,290.6z"/>
	</g>
</g>
<g>
	<g>
		<path class="st1" d="M1000.6,242.8c5.5,13.5,10.9,27,16.4,40.6c1.2,2.9,6,1.7,4.8-1.3c-5.5-13.5-10.9-27-16.4-40.6
			C1004.3,238.5,999.4,239.8,1000.6,242.8L1000.6,242.8z"/>
	</g>
</g>
<g>
	<g>
		<path class="st1" d="M970.2,314.1c-0.3,21.1,0.9,42.1,3.6,63c0.4,3.1,5.4,3.2,5,0c-2.7-20.9-4-41.9-3.6-63
			C975.2,310.9,970.2,310.9,970.2,314.1L970.2,314.1z"/>
	</g>
</g>
<g>
	<g>
		<path class="st1" d="M927.3,420.4c14.6-3,29.4-4.6,44.3-5c3.2-0.1,3.2-5.1,0-5c-15.3,0.3-30.6,2.1-45.6,5.1
			C922.9,416.2,924.2,421,927.3,420.4L927.3,420.4z"/>
	</g>
</g>
<g>
	<g>
		<path class="st1" d="M937,465c5.6,16.1,12.5,31.8,20.6,46.8c1.5,2.8,5.8,0.3,4.3-2.5c-7.9-14.7-14.6-29.9-20.1-45.6
			C940.8,460.6,936,461.9,937,465L937,465z"/>
	</g>
</g>
<g>
	<g>
		<path class="st1" d="M970.1,568.5c15,1,30,1.9,45,2.9c3.2,0.2,3.2-4.8,0-5c-15-1-30-1.9-45-2.9
			C966.9,563.3,966.9,568.3,970.1,568.5L970.1,568.5z"/>
	</g>
</g>
<g>
	<g>
		<path class="st1" d="M1146.3,835.8c8.3-14.9,17.2-29.5,26.7-43.7c1.8-2.7-2.5-5.2-4.3-2.5c-9.5,14.2-18.4,28.8-26.7,43.7
			C1140.4,836.1,1144.7,838.7,1146.3,835.8L1146.3,835.8z"/>
	</g>
</g>
<g>
	<g>
		<path class="st1" d="M1090.6,793.7c-15.1-5.9-29.3-14-41.9-24.2c-2.5-2-6,1.5-3.5,3.5c13.4,10.7,28.2,19.2,44.2,25.5
			C1092.2,799.7,1093.5,794.8,1090.6,793.7L1090.6,793.7z"/>
	</g>
</g>
<g>
	<g>
		<path class="st1" d="M1071.6,708.6c-0.8-15.4,0.3-30.7,3.3-45.7c0.6-3.1-4.2-4.5-4.8-1.3c-3.1,15.5-4.3,31.3-3.5,47.1
			C1066.8,711.8,1071.8,711.8,1071.6,708.6L1071.6,708.6z"/>
	</g>
</g>
<g>
	<g>
		<path class="st1" d="M996.7,666.6c-1.3-10.2-5.1-19.2-11.3-27.3c-2-2.5-5.5,1-3.5,3.5c5.4,6.9,8.8,15.1,9.9,23.7
			C992.1,669.7,997.2,669.8,996.7,666.6L996.7,666.6z"/>
	</g>
</g>
<g>
	<g>
		<path class="st1" d="M1140,735.9c13.8-5.3,28.3-8.4,43.1-9.1c3.2-0.1,3.2-5.1,0-5c-15.3,0.7-30.2,3.8-44.4,9.3
			C1135.7,732.3,1137,737.1,1140,735.9L1140,735.9z"/>
	</g>
</g>
<g>
	<g>
		<path class="st1" d="M1264.6,774.6c7.8,10.8,15.6,21.6,23.3,32.4c1.9,2.6,6.2,0.1,4.3-2.5c-7.8-10.8-15.6-21.6-23.3-32.4
			C1267,769.5,1262.7,772,1264.6,774.6L1264.6,774.6z"/>
	</g>
</g>
<g>
	<g>
		<path class="st1" d="M1361.5,801.6c7.4-9.1,15.5-17.5,24.3-25.3c2.4-2.1-1.1-5.7-3.5-3.5c-8.8,7.8-16.9,16.2-24.3,25.3
			C1355.9,800.5,1359.5,804.1,1361.5,801.6L1361.5,801.6z"/>
	</g>
</g>
<g>
	<g>
		<path class="st1" d="M1454.6,842.1c-0.4-20.4,0.7-40.7,3.5-60.9c0.4-3.1-4.4-4.5-4.8-1.3c-2.9,20.6-4.1,41.4-3.7,62.2
			C1449.6,845.3,1454.6,845.3,1454.6,842.1L1454.6,842.1z"/>
	</g>
</g>
<g>
	<g>
		<path class="st1" d="M1471.7,709.3c-18.3-6.4-35.5-15-51.6-25.7c-2.7-1.8-5.2,2.5-2.5,4.3c16.5,11,34.2,19.7,52.8,26.2
			C1473.4,715.2,1474.7,710.4,1471.7,709.3L1471.7,709.3z"/>
	</g>
</g>
<g>
	<g>
		<path class="st1" d="M1358,644.1c-0.7,18.5-1.3,37-2,55.5c-0.1,3.2,4.9,3.2,5,0c0.7-18.5,1.3-37,2-55.5
			C1363.1,640.9,1358.1,640.9,1358,644.1L1358,644.1z"/>
	</g>
</g>
<g>
	<g>
		<path class="st1" d="M1321.7,704.8c-17.4-5-33.7-12.5-48.7-22.6c-2.7-1.8-5.2,2.5-2.5,4.3c15.4,10.3,32.2,18,49.9,23.1
			C1323.5,710.5,1324.8,705.7,1321.7,704.8L1321.7,704.8z"/>
	</g>
</g>
<g>
	<g>
		<path class="st1" d="M1318,626.8c2.6-14.7,5.7-29.3,9.3-43.8c0.8-3.1-4-4.5-4.8-1.3c-3.6,14.5-6.7,29.1-9.3,43.8
			C1312.6,628.7,1317.4,630,1318,626.8L1318,626.8z"/>
	</g>
</g>
<g>
	<g>
		<path class="st1" d="M1240.4,649.6c-14.4,6.6-27.7,15.3-39.7,25.6c-2.4,2.1,1.1,5.6,3.5,3.5c11.7-10.1,24.6-18.4,38.6-24.9
			C1245.8,652.6,1243.3,648.2,1240.4,649.6L1240.4,649.6z"/>
	</g>
</g>
<g>
	<g>
		<path class="st1" d="M1533.6,715.3c6.5-16,12.9-32,19.4-48.1c1.2-3-3.6-4.3-4.8-1.3c-6.5,16-12.9,32-19.4,48.1
			C1527.5,716.9,1532.4,718.2,1533.6,715.3L1533.6,715.3z"/>
	</g>
</g>
<g>
	<g>
		<path class="st1" d="M1483,605.7c-14-6.7-25.6-17.1-33.4-30.5c-1.6-2.8-6-0.3-4.3,2.5c8.3,14.1,20.5,25.3,35.2,32.3
			C1483.3,611.4,1485.9,607,1483,605.7L1483,605.7z"/>
	</g>
</g>
<g>
	<g>
		<path class="st1" d="M1404.9,609.6c-0.6-17-1.3-34-1.9-51c-0.1-3.2-5.1-3.2-5,0c0.6,17,1.3,34,1.9,51
			C1400.1,612.8,1405.1,612.8,1404.9,609.6L1404.9,609.6z"/>
	</g>
</g>
<g>
	<g>
		<path class="st1" d="M1606,635.8c-2.3-15.5-4.6-30.9-6.8-46.4c-0.5-3.2-5.3-1.8-4.8,1.3c2.3,15.5,4.6,30.9,6.8,46.4
			C1601.7,640.3,1606.5,639,1606,635.8L1606,635.8z"/>
	</g>
</g>
<g>
	<g>
		<path class="st1" d="M1624.8,489.8c-14.1,5.5-26.7,13.8-37.2,24.7c-2.2,2.3,1.3,5.9,3.5,3.5c9.9-10.3,21.7-18.3,35-23.5
			C1629.1,493.5,1627.8,488.6,1624.8,489.8L1624.8,489.8z"/>
	</g>
</g>
<g>
	<g>
		<path class="st1" d="M1556.6,456c-20.4-0.4-40.6,1.8-60.5,6.6c-3.1,0.8-1.8,5.6,1.3,4.8c19.4-4.7,39.2-6.8,59.1-6.4
			C1559.8,461.1,1559.8,456.1,1556.6,456L1556.6,456z"/>
	</g>
</g>
<g>
	<g>
		<path class="st1" d="M1544.2,572.8c-5-12.8-12.3-24.2-22-33.9c-2.3-2.3-5.8,1.3-3.5,3.5c9,9.1,16.1,19.7,20.7,31.7
			C1540.6,577.1,1545.4,575.8,1544.2,572.8L1544.2,572.8z"/>
	</g>
</g>
<g>
	<g>
		<path class="st1" d="M1136.5,625.4c-2.3-16-5.1-32-8.6-47.8c-0.7-3.1-5.5-1.8-4.8,1.3c3.5,15.8,6.3,31.8,8.6,47.8
			C1132.1,629.9,1136.9,628.5,1136.5,625.4L1136.5,625.4z"/>
	</g>
</g>
<g>
	<g>
		<path class="st1" d="M1031.8,484.3c14.2,10.5,30.1,18.2,47.1,22.7c3.1,0.8,4.4-4,1.3-4.8c-16.7-4.4-32.1-11.9-45.9-22.2
			C1031.7,478.1,1029.2,482.4,1031.8,484.3L1031.8,484.3z"/>
	</g>
</g>
<g>
	<g>
		<path class="st1" d="M1227.1,501.6c1.3,22.2-1.8,44.2-9.3,65.2c-1.1,3,3.7,4.3,4.8,1.3c7.6-21.3,10.8-43.9,9.5-66.5
			C1231.9,498.4,1226.9,498.4,1227.1,501.6L1227.1,501.6z"/>
	</g>
</g>
<g>
	<g>
		<path class="st1" d="M1072.6,363.6c1.3,16.6-1.7,33-9,48.1c-1.4,2.9,2.9,5.4,4.3,2.5c7.6-15.8,11-33.1,9.6-50.6
			C1077.3,360.4,1072.3,360.4,1072.6,363.6L1072.6,363.6z"/>
	</g>
</g>
<g>
	<g>
		<path class="st1" d="M1161.8,414.5c-1,18-1.2,36-0.6,54c0.1,3.2,5.1,3.2,5,0c-0.6-18-0.4-36,0.6-54
			C1167,411.3,1162,411.3,1161.8,414.5L1161.8,414.5z"/>
	</g>
</g>
<g>
	<g>
		<path class="st1" d="M1159.3,344.1c-12.2-6.6-24.4-13.3-36.6-19.9c-2.8-1.5-5.4,2.8-2.5,4.3c12.2,6.6,24.4,13.3,36.6,19.9
			C1159.6,350,1162.1,345.6,1159.3,344.1L1159.3,344.1z"/>
	</g>
</g>
<g>
	<g>
		<path class="st1" d="M1105.3,205.3c13.3,8.5,27.5,15.2,42.5,20.1c3.1,1,4.4-3.8,1.3-4.8c-14.6-4.8-28.4-11.3-41.3-19.6
			C1105.1,199.2,1102.6,203.6,1105.3,205.3L1105.3,205.3z"/>
	</g>
</g>
<g>
	<g>
		<path class="st1" d="M1199.3,158.1c0.4,14.8,3.5,29.3,9.3,42.9c1.2,2.9,6.1,1.6,4.8-1.3c-5.6-13.3-8.7-27.2-9.1-41.6
			C1204.2,154.9,1199.2,154.9,1199.3,158.1L1199.3,158.1z"/>
	</g>
</g>
<g>
	<g>
		<path class="st1" d="M1287.5,194.4c-8.6,12.9-17.2,25.9-25.8,38.8c-1.8,2.7,2.5,5.2,4.3,2.5c8.6-12.9,17.2-25.9,25.8-38.8
			C1293.6,194.2,1289.3,191.7,1287.5,194.4L1287.5,194.4z"/>
	</g>
</g>
<g>
	<g>
		<path class="st1" d="M1190.8,269.8c8,11.5,14.1,24.1,18,37.6c0.9,3.1,5.7,1.8,4.8-1.3c-4.1-13.9-10.3-26.9-18.6-38.8
			C1193.3,264.6,1188.9,267.1,1190.8,269.8L1190.8,269.8z"/>
	</g>
</g>
<g>
	<g>
		<path class="st1" d="M1220.9,390.9c8.1-7.8,16.9-14.7,26.4-20.8c2.7-1.7,0.2-6.1-2.5-4.3c-9.8,6.3-19,13.5-27.4,21.6
			C1215.1,389.6,1218.6,393.2,1220.9,390.9L1220.9,390.9z"/>
	</g>
</g>
<g>
	<g>
		<path class="st1" d="M1289.1,496.1c3.8,10.6,7.7,21.1,11.5,31.7c1.1,3,5.9,1.7,4.8-1.3c-3.8-10.6-7.7-21.1-11.5-31.7
			C1292.8,491.8,1288,493.1,1289.1,496.1L1289.1,496.1z"/>
	</g>
</g>
<g>
	<g>
		<path class="st1" d="M1323.6,401.4c13.5,3,26.9,6.4,40.2,10.2c3.1,0.9,4.4-3.9,1.3-4.8c-13.3-3.8-26.7-7.2-40.2-10.2
			C1321.7,395.8,1320.4,400.7,1323.6,401.4L1323.6,401.4z"/>
	</g>
</g>
<g>
	<g>
		<path class="st1" d="M1443.7,456.1c-3.9,15.7-8.7,31.1-14.4,46.2c-1.1,3,3.7,4.3,4.8,1.3c5.7-15.1,10.5-30.6,14.4-46.2
			C1449.3,454.3,1444.4,452.9,1443.7,456.1L1443.7,456.1z"/>
	</g>
</g>
<g>
	<g>
		<path class="st1" d="M1328.7,312.7c-8.9-4.3-16.5-10.4-22.7-18.1c-2-2.5-5.5,1-3.5,3.5c6.4,8,14.5,14.4,23.7,18.9
			C1329,318.4,1331.6,314.1,1328.7,312.7L1328.7,312.7z"/>
	</g>
</g>
<g>
	<g>
		<path class="st1" d="M1334.6,219.1c10.5,5.5,21,11.1,31.4,16.6c2.8,1.5,5.4-2.8,2.5-4.3c-10.5-5.5-21-11.1-31.4-16.6
			C1334.3,213.3,1331.8,217.6,1334.6,219.1L1334.6,219.1z"/>
	</g>
</g>
<g>
	<g>
		<path class="st1" d="M1464.5,195.3c8.6,16.3,14.4,33.8,17.3,52c0.5,3.2,5.3,1.8,4.8-1.3c-2.9-18.6-9-36.5-17.8-53.2
			C1467.3,190,1463,192.5,1464.5,195.3L1464.5,195.3z"/>
	</g>
</g>
<g>
	<g>
		<path class="st1" d="M1428.1,252.6c-13.1,18.8-25.3,38.2-36.6,58.2c-1.6,2.8,2.7,5.3,4.3,2.5c11.3-20,23.5-39.4,36.6-58.2
			C1434.3,252.5,1429.9,250,1428.1,252.6L1428.1,252.6z"/>
	</g>
</g>
<g>
	<g>
		<path class="st1" d="M1379.9,352.2c12.9,8.3,27.8,12.6,43.2,12.6c3.2,0,3.2-5,0-5c-14.6,0-28.4-4.1-40.7-11.9
			C1379.7,346.1,1377.2,350.4,1379.9,352.2L1379.9,352.2z"/>
	</g>
</g>
<g>
	<g>
		<path class="st1" d="M1512.1,276.6c0,15.5,0,31,0,46.5c0,3.2,5,3.2,5,0c0-15.5,0-31,0-46.5
			C1517.1,273.4,1512.1,273.4,1512.1,276.6L1512.1,276.6z"/>
	</g>
</g>
<g>
	<g>
		<path class="st1" d="M1529.1,364.1c-15.5,10.1-32.2,18-49.8,23.5c-3.1,1-1.8,5.8,1.3,4.8c18-5.7,35.2-13.7,51-24
			C1534.3,366.7,1531.8,362.3,1529.1,364.1L1529.1,364.1z"/>
	</g>
</g>
</svg>
